<?xml version="1.0" encoding="utf-8" ?>
<svg xmlns="http://www.w3.org/2000/svg" xmlns:xlink="http://www.w3.org/1999/xlink" width="1242" height="1412" viewBox="0 0 1242 1412">
	<defs>
		<filter id="filter7430774199" filterUnits="userSpaceOnUse" color-interpolation-filters="sRGB">
			<feComponentTransfer in="SourceAlpha" result="componentTransfer2621766153">
				<feFuncR type="linear" slope="0" intercept="0"/>
				<feFuncG type="linear" slope="0" intercept="0"/>
				<feFuncB type="linear" slope="0" intercept="0"/>
				<feFuncA type="linear" slope="10000" intercept="0"/>
			</feComponentTransfer>
			<feComponentTransfer in="componentTransfer2621766153" result="componentTransfer5150693501">
				<feFuncA type="linear" slope="0.30000001" intercept="0"/>
			</feComponentTransfer>
			<feOffset dx="0" dy="16" in="componentTransfer5150693501" result="offset6732811214"/>
			<feGaussianBlur stdDeviation="32" in="offset6732811214" result="gaussianBlur7703452688"/>
			<feMerge>
				<feMergeNode in="gaussianBlur7703452688"/>
				<feMergeNode in="SourceGraphic"/>
			</feMerge>
		</filter>
	</defs>
	<g filter="url(#filter7430774199)">
		<path transform="matrix(1 0 0 1 139 66)" d="M48 0C21.4903 0 0 21.4903 0 48L0 1218C0 1244.51 21.4903 1266 48 1266L912 1266C938.51 1266 960 1244.51 960 1218C960 1017.55 960 248.452 960 48C960 21.4904 938.51 0 912 0L48 0Z" fill-rule="nonzero" fill="rgb(255, 255, 255)" fill-opacity="0.1"/>
		<path transform="matrix(1 0 0 1 139 66)" d="M-0 48C0 21.4903 21.4903 -0 48 -0L912 0C938.51 0 960 21.4903 960 48L960 1218C960 1244.51 938.51 1266 912 1266L48 1266C21.4903 1266 -0 1244.51 -0 1218L0 48ZM48 2C22.5949 2 2 22.5949 2 48L2 1218C2 1243.41 22.5949 1264 48 1264L912 1264C937.405 1264 958 1243.41 958 1218L958 48C958 22.5949 937.405 2 912 2L48 2Z" fill-rule="nonzero" fill="rgb(255, 255, 255)" fill-opacity="0.2"/>
		<defs>
			<filter id="filter9048694803" filterUnits="userSpaceOnUse" color-interpolation-filters="sRGB">
				<feGaussianBlur in="SourceGraphic" stdDeviation="59.999992"/>
			</filter>
		</defs>
		<g filter="url(#filter9048694803)">
			<path transform="matrix(1 0 0 1 441 120)" d="M0 0L360 0L360 360L0 360L0 0Z" fill-rule="nonzero" fill="rgb(227, 79, 38)" fill-opacity="0.3"/>
		</g>
		<defs>
			<clipPath id="clipPath8884005216">
				<path transform="matrix(1 0 0 1 441 120)" d="M0 0L360 0L360 360L0 360L0 0Z" fill-rule="nonzero"/>
			</clipPath>
		</defs>
		<g clip-path="url(#clipPath8884005216)">
			<path transform="matrix(1 0 0 1 441 120)" d="M45 22.5L69.5391 300.797L179.648 337.5L290.461 300.797L315 22.5L45 22.5M261.703 112.43L132.469 112.43L135.352 147.164L258.82 147.164L249.258 251.508L180.422 270.492L180.422 270.703L179.648 270.703L110.25 251.508L106.031 198.211L139.57 198.211L142.031 225L179.648 235.195L217.406 225L221.625 181.266L104.273 181.266L95.2734 78.8906L264.797 78.8906L261.703 112.43" fill-rule="nonzero" fill="rgb(227, 79, 38)"/>
		</g>
		<path transform="matrix(1 0 0 1 519 499)" d="M4.53663 58L4.53663 14.3623L12.4468 14.3623L12.4468 32.834L32.6763 32.834L32.6763 14.3623L40.5864 14.3623L40.5864 58L32.6763 58L32.6763 39.4697L12.4468 39.4697L12.4468 58L4.53663 58Z" fill-rule="nonzero" fill="rgb(255, 255, 255)"/>
		<path transform="matrix(1 0 0 1 519 499)" d="M47.27 20.998L47.27 14.3623L82.0747 14.3623L82.0747 20.998L68.5981 20.998L68.5981 58L60.7465 58L60.7465 20.998L47.27 20.998Z" fill-rule="nonzero" fill="rgb(255, 255, 255)"/>
		<path transform="matrix(1 0 0 1 519 499)" d="M88.7622 14.3623L98.4448 14.3623L111.409 45.9883L111.907 45.9883L124.871 14.3623L134.553 14.3623L134.553 58L126.951 58L126.951 28.0146L126.555 28.0146L114.485 57.8682L108.831 57.8682L96.7603 27.9414L96.3648 27.9414L96.3648 58L88.7622 58L88.7622 14.3623Z" fill-rule="nonzero" fill="rgb(255, 255, 255)"/>
		<path transform="matrix(1 0 0 1 519 499)" d="M143.137 58L143.137 14.3623L151.047 14.3623L151.047 51.3643L170.281 51.3643L170.281 58L143.137 58Z" fill-rule="nonzero" fill="rgb(255, 255, 255)"/>
		<path transform="matrix(1 0 0 1 519 499)" d="M191.851 58.6006Q187.588 58.6006 184.219 56.9893Q180.865 55.3779 178.887 52.5654Q176.91 49.7529 176.792 46.1348L184.468 46.1348Q184.673 48.8154 186.783 50.5146Q188.907 52.1992 191.851 52.1992Q194.18 52.1992 195.997 51.1445Q197.813 50.0752 198.838 48.1855Q199.878 46.2812 199.878 43.8496Q199.878 41.374 198.809 39.4551Q197.754 37.5361 195.894 36.4521Q194.048 35.3535 191.646 35.3535Q189.698 35.3389 187.793 36.0859Q185.889 36.8184 184.776 38.0342L177.642 36.8623L179.913 14.3623L205.24 14.3623L205.24 20.9541L186.46 20.9541L185.201 32.541L185.45 32.541Q186.665 31.1055 188.877 30.168Q191.104 29.2158 193.755 29.2158Q197.725 29.2158 200.831 31.0908Q203.936 32.9512 205.723 36.2031Q207.525 39.4551 207.51 43.6592Q207.525 47.9951 205.533 51.3643Q203.54 54.7334 199.996 56.667Q196.465 58.6006 191.851 58.6006Z" fill-rule="nonzero" fill="rgb(255, 255, 255)"/>
		<path transform="matrix(1 0 0 1 217 631)" d="M3.96606 55L3.96606 22.2717L7.92114 22.2717L7.92114 36.8506L25.3784 36.8506L25.3784 22.2717L29.3445 22.2717L29.3445 55L25.3784 55L25.3784 40.3662L7.92114 40.3662L7.92114 55L3.96606 55Z" fill-rule="nonzero" fill="rgb(224, 224, 224)"/>
		<path transform="matrix(1 0 0 1 217 631)" d="M35.4776 25.7874L35.4776 22.2717L60.0211 22.2717L60.0211 25.7874L49.7269 25.7874L49.7269 55L45.7718 55L45.7718 25.7874L35.4776 25.7874Z" fill-rule="nonzero" fill="rgb(224, 224, 224)"/>
		<path transform="matrix(1 0 0 1 217 631)" d="M66.1602 22.2717L70.8844 22.2717L82.0135 49.4409L82.398 49.4409L93.5162 22.2717L98.2403 22.2717L98.2403 55L94.5379 55L94.5379 30.1379L94.2193 30.1379L83.9911 55L80.4095 55L70.1812 30.1379L69.8626 30.1379L69.8626 55L66.1602 55L66.1602 22.2717Z" fill-rule="nonzero" fill="rgb(224, 224, 224)"/>
		<path transform="matrix(1 0 0 1 217 631)" d="M106.174 55L106.174 22.2717L110.129 22.2717L110.129 51.4844L125.345 51.4844L125.345 55L106.174 55Z" fill-rule="nonzero" fill="rgb(224, 224, 224)"/>
		<path transform="matrix(1 0 0 1 217 631)" d="M163.954 55.4504Q161.141 55.4504 158.889 54.3298Q156.637 53.2092 155.275 51.2646Q153.923 49.3091 153.792 46.8152L157.626 46.8152Q157.857 49.0344 159.647 50.4846Q161.449 51.9348 163.954 51.9348Q165.975 51.9348 167.546 50.99Q169.118 50.0452 170.018 48.3972Q170.919 46.7383 170.919 44.6399Q170.919 42.5085 169.985 40.8276Q169.052 39.1357 167.426 38.158Q165.8 37.1802 163.701 37.1692Q162.196 37.1472 160.614 37.6196Q159.032 38.092 158.01 38.8281L154.308 38.3777L156.286 22.2717L173.292 22.2717L173.292 25.7874L159.614 25.7874L158.461 35.4443L158.648 35.4443Q159.658 34.6423 161.174 34.115Q162.691 33.5876 164.338 33.5876Q167.349 33.5876 169.7 35.0159Q172.062 36.4441 173.413 38.927Q174.765 41.3989 174.765 44.585Q174.765 47.7161 173.358 50.166Q171.963 52.616 169.513 54.0332Q167.074 55.4504 163.954 55.4504Z" fill-rule="nonzero" fill="rgb(224, 224, 224)"/>
		<path transform="matrix(1 0 0 1 217 631)" d="M203.971 55L203.971 30.4565L207.739 30.4565L207.739 55L203.971 55ZM205.893 26.3586Q204.784 26.3586 203.993 25.6116Q203.202 24.8645 203.202 23.8098Q203.202 22.7551 203.993 22.0081Q204.784 21.25 205.893 21.25Q206.992 21.25 207.783 22.0081Q208.574 22.7551 208.574 23.8098Q208.574 24.8645 207.783 25.6116Q206.992 26.3586 205.893 26.3586Z" fill-rule="nonzero" fill="rgb(224, 224, 224)"/>
		<path transform="matrix(1 0 0 1 217 631)" d="M232.037 35.9497L228.642 36.9055Q228.323 36.0596 227.708 35.2576Q227.093 34.4446 226.038 33.9172Q224.984 33.3899 223.336 33.3899Q221.083 33.3899 219.589 34.4226Q218.095 35.4553 218.095 37.0374Q218.095 38.4436 219.117 39.2566Q220.15 40.0696 222.314 40.6189L225.961 41.5088Q229.257 42.3108 230.861 43.9478Q232.476 45.5847 232.476 48.1555Q232.476 50.2649 231.268 51.9348Q230.07 53.5938 227.906 54.5605Q225.753 55.5164 222.896 55.5164Q219.139 55.5164 216.678 53.8904Q214.217 52.2534 213.558 49.1223L217.139 48.2214Q217.656 50.21 219.084 51.1987Q220.512 52.1875 222.83 52.1875Q225.467 52.1875 227.027 51.0669Q228.587 49.9353 228.587 48.3533Q228.587 47.0789 227.686 46.2109Q226.796 45.332 224.94 44.9036L220.853 43.9368Q217.48 43.1458 215.898 41.4648Q214.327 39.7729 214.327 37.2351Q214.327 35.1477 215.502 33.5547Q216.678 31.9617 218.71 31.0498Q220.754 30.1379 223.336 30.1379Q226.983 30.1379 229.071 31.7419Q231.158 33.335 232.037 35.9497Z" fill-rule="nonzero" fill="rgb(224, 224, 224)"/>
		<path transform="matrix(1 0 0 1 217 631)" d="M271.668 30.4565L271.668 33.6536L258.946 33.6536L258.946 30.4565L271.668 30.4565ZM262.648 24.5789L266.428 24.5789L266.428 47.9688Q266.428 49.5618 266.9 50.3528Q267.373 51.1438 268.109 51.4075Q268.856 51.6711 269.68 51.6711Q270.306 51.6711 270.701 51.6052Q271.108 51.5283 271.35 51.4844L272.119 54.8682Q271.734 55.011 271.042 55.1648Q270.361 55.3186 269.306 55.3186Q267.702 55.3186 266.175 54.6375Q264.648 53.9453 263.648 52.5391Q262.648 51.1328 262.648 48.9905L262.648 24.5789Z" fill-rule="nonzero" fill="rgb(224, 224, 224)"/>
		<path transform="matrix(1 0 0 1 217 631)" d="M281.633 40.2344L281.633 55L277.864 55L277.864 22.2717L281.633 22.2717L281.633 34.2908L281.962 34.2908Q282.819 32.3901 284.555 31.2695Q286.291 30.1379 289.18 30.1379Q291.685 30.1379 293.575 31.1377Q295.464 32.1375 296.508 34.1919Q297.552 36.2354 297.552 39.3994L297.552 55L293.784 55L293.784 39.6631Q293.784 36.7297 292.267 35.1257Q290.762 33.5217 288.093 33.5217Q286.236 33.5217 284.775 34.3127Q283.314 35.0928 282.468 36.5979Q281.633 38.092 281.633 40.2344Z" fill-rule="nonzero" fill="rgb(224, 224, 224)"/>
		<path transform="matrix(1 0 0 1 217 631)" d="M314.749 55.5164Q311.201 55.5164 308.63 53.9453Q306.07 52.3633 304.686 49.5288Q303.302 46.6943 303.302 42.915Q303.302 39.1467 304.686 36.2683Q306.07 33.3789 308.553 31.7639Q311.036 30.1379 314.365 30.1379Q316.287 30.1379 318.155 30.7751Q320.023 31.4124 321.55 32.8406Q323.088 34.2688 324 36.6199Q324.912 38.9709 324.912 42.4097L324.912 44.0027L305.993 44.0027L305.993 40.7507L321.077 40.7507Q321.077 38.6633 320.253 37.0374Q319.429 35.4114 317.913 34.4666Q316.408 33.5217 314.365 33.5217Q312.113 33.5217 310.476 34.6313Q308.839 35.741 307.96 37.5208Q307.081 39.2896 307.081 41.322L307.081 43.4973Q307.081 46.2769 308.048 48.1995Q309.014 50.1221 310.739 51.1218Q312.464 52.1216 314.749 52.1216Q316.232 52.1216 317.441 51.7041Q318.649 51.2756 319.528 50.4187Q320.407 49.5618 320.88 48.2874L324.527 49.3091Q323.956 51.1658 322.594 52.561Q321.231 53.9563 319.232 54.7363Q317.243 55.5164 314.749 55.5164Z" fill-rule="nonzero" fill="rgb(224, 224, 224)"/>
		<path transform="matrix(1 0 0 1 217 631)" d="M357.252 22.2717L357.252 55L353.484 55L353.484 22.2717L357.252 22.2717Z" fill-rule="nonzero" fill="rgb(224, 224, 224)"/>
		<path transform="matrix(1 0 0 1 217 631)" d="M371.387 55.5713Q369.047 55.5713 367.147 54.6924Q365.246 53.8025 364.125 52.1216Q363.005 50.4297 363.005 48.0347Q363.005 45.9253 363.84 44.6069Q364.675 43.2886 366.059 42.5415Q367.454 41.7834 369.135 41.4099Q370.827 41.0364 372.53 40.8057Q374.771 40.52 376.166 40.3772Q377.573 40.2234 378.21 39.8608Q378.858 39.4873 378.858 38.5754L378.858 38.4436Q378.858 36.0815 377.573 34.7742Q376.287 33.4558 373.684 33.4558Q370.981 33.4558 369.443 34.6423Q367.916 35.8289 367.29 37.1692L363.708 35.8838Q364.675 33.6536 366.279 32.4011Q367.883 31.1377 369.794 30.6433Q371.706 30.1379 373.552 30.1379Q374.738 30.1379 376.276 30.4236Q377.825 30.6982 379.265 31.5662Q380.715 32.4231 381.671 34.1699Q382.637 35.9058 382.637 38.8281L382.637 55L378.858 55L378.858 51.6711L378.671 51.6711Q378.287 52.4731 377.386 53.385Q376.496 54.2969 375.013 54.9341Q373.53 55.5713 371.387 55.5713ZM371.959 52.1875Q374.2 52.1875 375.738 51.3086Q377.276 50.4297 378.067 49.0454Q378.858 47.6501 378.858 46.1121L378.858 42.6624Q378.627 42.948 377.814 43.1787Q377.012 43.4094 375.958 43.5852Q374.914 43.75 373.925 43.8708Q372.947 43.9917 372.343 44.0686Q370.871 44.2664 369.597 44.6948Q368.333 45.1123 367.553 45.9473Q366.784 46.7822 366.784 48.2214Q366.784 50.188 368.245 51.1877Q369.707 52.1875 371.959 52.1875Z" fill-rule="nonzero" fill="rgb(224, 224, 224)"/>
		<path transform="matrix(1 0 0 1 217 631)" d="M400.213 30.4565L400.213 33.6536L387.491 33.6536L387.491 30.4565L400.213 30.4565ZM391.194 24.5789L394.973 24.5789L394.973 47.9688Q394.973 49.5618 395.445 50.3528Q395.918 51.1438 396.654 51.4075Q397.401 51.6711 398.225 51.6711Q398.851 51.6711 399.247 51.6052Q399.653 51.5283 399.895 51.4844L400.664 54.8682Q400.279 55.011 399.587 55.1648Q398.906 55.3186 397.851 55.3186Q396.247 55.3186 394.72 54.6375Q393.193 53.9453 392.193 52.5391Q391.194 51.1328 391.194 48.9905L391.194 24.5789Z" fill-rule="nonzero" fill="rgb(224, 224, 224)"/>
		<path transform="matrix(1 0 0 1 217 631)" d="M415.937 55.5164Q412.388 55.5164 409.817 53.9453Q407.258 52.3633 405.873 49.5288Q404.489 46.6943 404.489 42.915Q404.489 39.1467 405.873 36.2683Q407.258 33.3789 409.74 31.7639Q412.223 30.1379 415.552 30.1379Q417.475 30.1379 419.342 30.7751Q421.21 31.4124 422.737 32.8406Q424.275 34.2688 425.187 36.6199Q426.099 38.9709 426.099 42.4097L426.099 44.0027L407.181 44.0027L407.181 40.7507L422.265 40.7507Q422.265 38.6633 421.441 37.0374Q420.617 35.4114 419.101 34.4666Q417.596 33.5217 415.552 33.5217Q413.3 33.5217 411.663 34.6313Q410.026 35.741 409.147 37.5208Q408.268 39.2896 408.268 41.322L408.268 43.4973Q408.268 46.2769 409.235 48.1995Q410.202 50.1221 411.927 51.1218Q413.652 52.1216 415.937 52.1216Q417.42 52.1216 418.628 51.7041Q419.837 51.2756 420.716 50.4187Q421.595 49.5618 422.067 48.2874L425.715 49.3091Q425.143 51.1658 423.781 52.561Q422.419 53.9563 420.419 54.7363Q418.431 55.5164 415.937 55.5164Z" fill-rule="nonzero" fill="rgb(224, 224, 224)"/>
		<path transform="matrix(1 0 0 1 217 631)" d="M449.241 35.9497L445.846 36.9055Q445.528 36.0596 444.912 35.2576Q444.297 34.4446 443.243 33.9172Q442.188 33.3899 440.54 33.3899Q438.288 33.3899 436.794 34.4226Q435.299 35.4553 435.299 37.0374Q435.299 38.4436 436.321 39.2566Q437.354 40.0696 439.518 40.6189L443.166 41.5088Q446.462 42.3108 448.066 43.9478Q449.681 45.5847 449.681 48.1555Q449.681 50.2649 448.472 51.9348Q447.275 53.5938 445.11 54.5605Q442.957 55.5164 440.1 55.5164Q436.343 55.5164 433.882 53.8904Q431.421 52.2534 430.762 49.1223L434.344 48.2214Q434.86 50.21 436.288 51.1987Q437.716 52.1875 440.035 52.1875Q442.671 52.1875 444.231 51.0669Q445.791 49.9353 445.791 48.3533Q445.791 47.0789 444.891 46.2109Q444.001 45.332 442.144 44.9036L438.057 43.9368Q434.684 43.1458 433.102 41.4648Q431.531 39.7729 431.531 37.2351Q431.531 35.1477 432.707 33.5547Q433.882 31.9617 435.915 31.0498Q437.958 30.1379 440.54 30.1379Q444.187 30.1379 446.275 31.7419Q448.362 33.335 449.241 35.9497Z" fill-rule="nonzero" fill="rgb(224, 224, 224)"/>
		<path transform="matrix(1 0 0 1 217 631)" d="M466.051 30.4565L466.051 33.6536L453.329 33.6536L453.329 30.4565L466.051 30.4565ZM457.031 24.5789L460.811 24.5789L460.811 47.9688Q460.811 49.5618 461.283 50.3528Q461.755 51.1438 462.491 51.4075Q463.238 51.6711 464.062 51.6711Q464.689 51.6711 465.084 51.6052Q465.491 51.5283 465.732 51.4844L466.501 54.8682Q466.117 55.011 465.425 55.1648Q464.744 55.3186 463.689 55.3186Q462.085 55.3186 460.558 54.6375Q459.031 53.9453 458.031 52.5391Q457.031 51.1328 457.031 48.9905L457.031 24.5789Z" fill-rule="nonzero" fill="rgb(224, 224, 224)"/>
		<path transform="matrix(1 0 0 1 217 631)" d="M514.629 30.4565L505.555 55L501.72 55L492.646 30.4565L496.733 30.4565L503.511 50.0122L503.764 50.0122L510.542 30.4565L514.629 30.4565Z" fill-rule="nonzero" fill="rgb(224, 224, 224)"/>
		<path transform="matrix(1 0 0 1 217 631)" d="M529.013 55.5164Q525.465 55.5164 522.894 53.9453Q520.334 52.3633 518.95 49.5288Q517.565 46.6943 517.565 42.915Q517.565 39.1467 518.95 36.2683Q520.334 33.3789 522.817 31.7639Q525.3 30.1379 528.629 30.1379Q530.551 30.1379 532.419 30.7751Q534.287 31.4124 535.814 32.8406Q537.352 34.2688 538.264 36.6199Q539.176 38.9709 539.176 42.4097L539.176 44.0027L520.257 44.0027L520.257 40.7507L535.341 40.7507Q535.341 38.6633 534.517 37.0374Q533.693 35.4114 532.177 34.4666Q530.672 33.5217 528.629 33.5217Q526.377 33.5217 524.74 34.6313Q523.103 35.741 522.224 37.5208Q521.345 39.2896 521.345 41.322L521.345 43.4973Q521.345 46.2769 522.312 48.1995Q523.278 50.1221 525.003 51.1218Q526.728 52.1216 529.013 52.1216Q530.496 52.1216 531.705 51.7041Q532.913 51.2756 533.792 50.4187Q534.671 49.5618 535.144 48.2874L538.791 49.3091Q538.22 51.1658 536.857 52.561Q535.495 53.9563 533.496 54.7363Q531.507 55.5164 529.013 55.5164Z" fill-rule="nonzero" fill="rgb(224, 224, 224)"/>
		<path transform="matrix(1 0 0 1 217 631)" d="M544.926 55L544.926 30.4565L548.574 30.4565L548.574 34.1589L548.826 34.1589Q549.497 32.3352 551.254 31.2036Q553.012 30.072 555.22 30.072Q555.638 30.072 556.253 30.094Q556.879 30.105 557.198 30.1379L557.198 33.9722Q557.011 33.9172 556.33 33.8184Q555.649 33.7195 554.902 33.7195Q553.111 33.7195 551.705 34.4666Q550.31 35.2026 549.497 36.51Q548.695 37.8064 548.695 39.4653L548.695 55L544.926 55Z" fill-rule="nonzero" fill="rgb(224, 224, 224)"/>
		<path transform="matrix(1 0 0 1 217 631)" d="M579.065 35.9497L575.67 36.9055Q575.351 36.0596 574.736 35.2576Q574.121 34.4446 573.066 33.9172Q572.011 33.3899 570.363 33.3899Q568.111 33.3899 566.617 34.4226Q565.123 35.4553 565.123 37.0374Q565.123 38.4436 566.145 39.2566Q567.177 40.0696 569.342 40.6189L572.989 41.5088Q576.285 42.3108 577.889 43.9478Q579.504 45.5847 579.504 48.1555Q579.504 50.2649 578.296 51.9348Q577.098 53.5938 574.934 54.5605Q572.78 55.5164 569.924 55.5164Q566.167 55.5164 563.706 53.8904Q561.245 52.2534 560.586 49.1223L564.167 48.2214Q564.684 50.21 566.112 51.1987Q567.54 52.1875 569.858 52.1875Q572.495 52.1875 574.055 51.0669Q575.615 49.9353 575.615 48.3533Q575.615 47.0789 574.714 46.2109Q573.824 45.332 571.967 44.9036L567.881 43.9368Q564.508 43.1458 562.926 41.4648Q561.355 39.7729 561.355 37.2351Q561.355 35.1477 562.53 33.5547Q563.706 31.9617 565.738 31.0498Q567.782 30.1379 570.363 30.1379Q574.011 30.1379 576.098 31.7419Q578.186 33.335 579.065 35.9497Z" fill-rule="nonzero" fill="rgb(224, 224, 224)"/>
		<path transform="matrix(1 0 0 1 217 631)" d="M585.196 55L585.196 30.4565L588.964 30.4565L588.964 55L585.196 55ZM587.118 26.3586Q586.009 26.3586 585.218 25.6116Q584.427 24.8645 584.427 23.8098Q584.427 22.7551 585.218 22.0081Q586.009 21.25 587.118 21.25Q588.217 21.25 589.008 22.0081Q589.799 22.7551 589.799 23.8098Q589.799 24.8645 589.008 25.6116Q588.217 26.3586 587.118 26.3586Z" fill-rule="nonzero" fill="rgb(224, 224, 224)"/>
		<path transform="matrix(1 0 0 1 217 631)" d="M605.846 55.5164Q602.517 55.5164 600.012 53.9343Q597.518 52.3523 596.112 49.5068Q594.717 46.6614 594.717 42.8601Q594.717 39.0149 596.112 36.1584Q597.518 33.302 600.012 31.72Q602.517 30.1379 605.846 30.1379Q609.164 30.1379 611.669 31.72Q614.174 33.302 615.569 36.1584Q616.964 39.0149 616.964 42.8601Q616.964 46.6614 615.569 49.5068Q614.174 52.3523 611.669 53.9343Q609.164 55.5164 605.846 55.5164ZM605.846 52.1216Q608.373 52.1216 609.999 50.8362Q611.625 49.5398 612.405 47.4304Q613.196 45.321 613.196 42.8601Q613.196 40.3992 612.405 38.2788Q611.625 36.1475 609.999 34.8401Q608.373 33.5217 605.846 33.5217Q603.319 33.5217 601.682 34.8401Q600.056 36.1475 599.276 38.2788Q598.496 40.3992 598.496 42.8601Q598.496 45.321 599.276 47.4304Q600.056 49.5398 601.682 50.8362Q603.319 52.1216 605.846 52.1216Z" fill-rule="nonzero" fill="rgb(224, 224, 224)"/>
		<path transform="matrix(1 0 0 1 217 631)" d="M626.485 40.2344L626.485 55L622.717 55L622.717 30.4565L626.364 30.4565L626.364 34.2908L626.683 34.2908Q627.54 32.4231 629.298 31.2805Q631.055 30.1379 633.846 30.1379Q636.329 30.1379 638.197 31.1487Q640.075 32.1594 641.108 34.2139Q642.152 36.2683 642.152 39.3994L642.152 55L638.383 55L638.383 39.6631Q638.383 36.7627 636.878 35.1477Q635.373 33.5217 632.758 33.5217Q630.946 33.5217 629.528 34.3127Q628.122 35.0928 627.298 36.5979Q626.485 38.092 626.485 40.2344Z" fill-rule="nonzero" fill="rgb(224, 224, 224)"/>
		<path transform="matrix(1 0 0 1 217 631)" d="M681.849 55.5164Q678.52 55.5164 676.015 53.9343Q673.521 52.3523 672.115 49.5068Q670.72 46.6614 670.72 42.8601Q670.72 39.0149 672.115 36.1584Q673.521 33.302 676.015 31.72Q678.52 30.1379 681.849 30.1379Q685.167 30.1379 687.672 31.72Q690.177 33.302 691.572 36.1584Q692.967 39.0149 692.967 42.8601Q692.967 46.6614 691.572 49.5068Q690.177 52.3523 687.672 53.9343Q685.167 55.5164 681.849 55.5164ZM681.849 52.1216Q684.376 52.1216 686.002 50.8362Q687.628 49.5398 688.408 47.4304Q689.199 45.321 689.199 42.8601Q689.199 40.3992 688.408 38.2788Q687.628 36.1475 686.002 34.8401Q684.376 33.5217 681.849 33.5217Q679.322 33.5217 677.685 34.8401Q676.059 36.1475 675.279 38.2788Q674.499 40.3992 674.499 42.8601Q674.499 45.321 675.279 47.4304Q676.059 49.5398 677.685 50.8362Q679.322 52.1216 681.849 52.1216Z" fill-rule="nonzero" fill="rgb(224, 224, 224)"/>
		<path transform="matrix(1 0 0 1 217 631)" d="M709.651 30.4565L709.651 33.6536L696.424 33.6536L696.424 30.4565L709.651 30.4565ZM700.379 55L700.379 27.0618Q700.379 24.9524 701.367 23.5461Q702.367 22.1399 703.949 21.4368Q705.531 20.7336 707.289 20.7336Q708.673 20.7336 709.552 20.9644Q710.431 21.1841 710.871 21.3818L709.783 24.6338Q709.497 24.5459 708.992 24.4031Q708.487 24.2493 707.674 24.2493Q705.806 24.2493 704.982 25.1941Q704.158 26.1389 704.158 27.9626L704.158 55L700.379 55Z" fill-rule="nonzero" fill="rgb(224, 224, 224)"/>
		<path transform="matrix(1 0 0 1 217 631)" d="M748.456 30.4565L748.456 33.6536L735.733 33.6536L735.733 30.4565L748.456 30.4565ZM739.436 24.5789L743.215 24.5789L743.215 47.9688Q743.215 49.5618 743.688 50.3528Q744.16 51.1438 744.896 51.4075Q745.643 51.6711 746.467 51.6711Q747.093 51.6711 747.489 51.6052Q747.895 51.5283 748.137 51.4844L748.906 54.8682Q748.522 55.011 747.829 55.1648Q747.148 55.3186 746.094 55.3186Q744.49 55.3186 742.962 54.6375Q741.435 53.9453 740.436 52.5391Q739.436 51.1328 739.436 48.9905L739.436 24.5789Z" fill-rule="nonzero" fill="rgb(224, 224, 224)"/>
		<path transform="matrix(1 0 0 1 217 631)" d="M758.42 40.2344L758.42 55L754.652 55L754.652 22.2717L758.42 22.2717L758.42 34.2908L758.75 34.2908Q759.607 32.3901 761.342 31.2695Q763.078 30.1379 765.968 30.1379Q768.473 30.1379 770.362 31.1377Q772.252 32.1375 773.296 34.1919Q774.339 36.2354 774.339 39.3994L774.339 55L770.571 55L770.571 39.6631Q770.571 36.7297 769.055 35.1257Q767.55 33.5217 764.88 33.5217Q763.023 33.5217 761.562 34.3127Q760.101 35.0928 759.255 36.5979Q758.42 38.092 758.42 40.2344Z" fill-rule="nonzero" fill="rgb(224, 224, 224)"/>
		<path transform="matrix(1 0 0 1 217 631)" d="M791.537 55.5164Q787.988 55.5164 785.417 53.9453Q782.857 52.3633 781.473 49.5288Q780.089 46.6943 780.089 42.915Q780.089 39.1467 781.473 36.2683Q782.857 33.3789 785.34 31.7639Q787.823 30.1379 791.152 30.1379Q793.075 30.1379 794.942 30.7751Q796.81 31.4124 798.337 32.8406Q799.875 34.2688 800.787 36.6199Q801.699 38.9709 801.699 42.4097L801.699 44.0027L782.781 44.0027L782.781 40.7507L797.865 40.7507Q797.865 38.6633 797.041 37.0374Q796.217 35.4114 794.701 34.4666Q793.196 33.5217 791.152 33.5217Q788.9 33.5217 787.263 34.6313Q785.626 35.741 784.747 37.5208Q783.868 39.2896 783.868 41.322L783.868 43.4973Q783.868 46.2769 784.835 48.1995Q785.802 50.1221 787.527 51.1218Q789.252 52.1216 791.537 52.1216Q793.02 52.1216 794.228 51.7041Q795.437 51.2756 796.316 50.4187Q797.195 49.5618 797.667 48.2874L801.315 49.3091Q800.743 51.1658 799.381 52.561Q798.019 53.9563 796.019 54.7363Q794.031 55.5164 791.537 55.5164Z" fill-rule="nonzero" fill="rgb(224, 224, 224)"/>
		<path transform="matrix(1 0 0 1 217 631)" d="M20.8411 113.95L17.4463 114.906Q17.1277 114.06 16.5125 113.258Q15.8972 112.445 14.8425 111.917Q13.7878 111.39 12.1399 111.39Q9.8877 111.39 8.39355 112.423Q6.89941 113.455 6.89941 115.037Q6.89941 116.444 7.92114 117.257Q8.95386 118.07 11.1182 118.619L14.7656 119.509Q18.0615 120.311 19.6655 121.948Q21.2805 123.585 21.2805 126.156Q21.2805 128.265 20.072 129.935Q18.8745 131.594 16.7102 132.561Q14.5569 133.516 11.7004 133.516Q7.94312 133.516 5.48218 131.89Q3.02124 130.253 2.36206 127.122L5.9436 126.221Q6.45996 128.21 7.88818 129.199Q9.31641 130.188 11.6345 130.188Q14.2712 130.188 15.8313 129.067Q17.3914 127.935 17.3914 126.353Q17.3914 125.079 16.4905 124.211Q15.6006 123.332 13.7439 122.904L9.65698 121.937Q6.28418 121.146 4.70215 119.465Q3.1311 117.773 3.1311 115.235Q3.1311 113.148 4.30664 111.555Q5.48218 109.962 7.51465 109.05Q9.55811 108.138 12.1399 108.138Q15.7874 108.138 17.8748 109.742Q19.9622 111.335 20.8411 113.95Z" fill-rule="nonzero" fill="rgb(224, 224, 224)"/>
		<path transform="matrix(1 0 0 1 217 631)" d="M37.651 108.457L37.651 111.654L24.9288 111.654L24.9288 108.457L37.651 108.457ZM28.6312 102.579L32.4105 102.579L32.4105 125.969Q32.4105 127.562 32.8829 128.353Q33.3553 129.144 34.0914 129.407Q34.8385 129.671 35.6625 129.671Q36.2887 129.671 36.6842 129.605Q37.0907 129.528 37.3324 129.484L38.1014 132.868Q37.7169 133.011 37.0248 133.165Q36.3436 133.319 35.2889 133.319Q33.6849 133.319 32.1578 132.637Q30.6307 131.945 29.631 130.539Q28.6312 129.133 28.6312 126.99L28.6312 102.579Z" fill-rule="nonzero" fill="rgb(224, 224, 224)"/>
		<path transform="matrix(1 0 0 1 217 631)" d="M50.5648 133.571Q48.2247 133.571 46.3241 132.692Q44.4235 131.802 43.3029 130.122Q42.1823 128.43 42.1823 126.035Q42.1823 123.925 43.0172 122.607Q43.8522 121.289 45.2365 120.542Q46.6317 119.783 48.3126 119.41Q50.0045 119.036 51.7074 118.806Q53.9486 118.52 55.3439 118.377Q56.7501 118.223 57.3873 117.861Q58.0355 117.487 58.0355 116.575L58.0355 116.444Q58.0355 114.082 56.7501 112.774Q55.4647 111.456 52.861 111.456Q50.1583 111.456 48.6202 112.642Q47.0931 113.829 46.4669 115.169L42.8854 113.884Q43.8522 111.654 45.4562 110.401Q47.0602 109.138 48.9718 108.643Q50.8834 108.138 52.7291 108.138Q53.9156 108.138 55.4537 108.424Q57.0028 108.698 58.442 109.566Q59.8922 110.423 60.848 112.17Q61.8148 113.906 61.8148 116.828L61.8148 133L58.0355 133L58.0355 129.671L57.8488 129.671Q57.4642 130.473 56.5634 131.385Q55.6735 132.297 54.1903 132.934Q52.7072 133.571 50.5648 133.571ZM51.1361 130.188Q53.3773 130.188 54.9154 129.309Q56.4535 128.43 57.2445 127.045Q58.0355 125.65 58.0355 124.112L58.0355 120.662Q57.8048 120.948 56.9918 121.179Q56.1898 121.409 55.1351 121.585Q54.0914 121.75 53.1027 121.871Q52.1249 121.992 51.5206 122.069Q50.0485 122.266 48.774 122.695Q47.5106 123.112 46.7306 123.947Q45.9615 124.782 45.9615 126.221Q45.9615 128.188 47.4227 129.188Q48.8839 130.188 51.1361 130.188Z" fill-rule="nonzero" fill="rgb(224, 224, 224)"/>
		<path transform="matrix(1 0 0 1 217 631)" d="M72.4803 118.234L72.4803 133L68.712 133L68.712 108.457L72.3595 108.457L72.3595 112.291L72.6781 112.291Q73.535 110.423 75.2928 109.281Q77.0507 108.138 79.8412 108.138Q82.3241 108.138 84.1918 109.149Q86.0704 110.159 87.1031 112.214Q88.1469 114.268 88.1469 117.399L88.1469 133L84.3785 133L84.3785 117.663Q84.3785 114.763 82.8734 113.148Q81.3683 111.522 78.7535 111.522Q76.9408 111.522 75.5236 112.313Q74.1173 113.093 73.2933 114.598Q72.4803 116.092 72.4803 118.234Z" fill-rule="nonzero" fill="rgb(224, 224, 224)"/>
		<path transform="matrix(1 0 0 1 217 631)" d="M104.32 133.516Q101.254 133.516 98.9033 131.956Q96.5522 130.396 95.2229 127.551Q93.8936 124.694 93.8936 120.794Q93.8936 116.927 95.2229 114.082Q96.5522 111.236 98.9143 109.687Q101.276 108.138 104.385 108.138Q106.781 108.138 108.176 108.929Q109.571 109.72 110.318 110.72Q111.065 111.719 111.472 112.357L111.801 112.357L111.801 100.272L115.57 100.272L115.57 133L111.922 133L111.922 129.232L111.472 129.232Q111.065 129.902 110.296 130.924Q109.527 131.934 108.099 132.725Q106.682 133.516 104.32 133.516ZM104.825 130.122Q107.099 130.122 108.659 128.935Q110.23 127.738 111.043 125.628Q111.856 123.508 111.856 120.728Q111.856 117.982 111.054 115.916Q110.263 113.84 108.692 112.686Q107.132 111.522 104.825 111.522Q102.43 111.522 100.837 112.752Q99.2549 113.972 98.4639 116.059Q97.6729 118.135 97.6729 120.728Q97.6729 123.343 98.4749 125.485Q99.2878 127.617 100.87 128.869Q102.463 130.122 104.825 130.122Z" fill-rule="nonzero" fill="rgb(224, 224, 224)"/>
		<path transform="matrix(1 0 0 1 217 631)" d="M130.209 133.571Q127.869 133.571 125.968 132.692Q124.068 131.802 122.947 130.122Q121.827 128.43 121.827 126.035Q121.827 123.925 122.662 122.607Q123.497 121.289 124.881 120.542Q126.276 119.783 127.957 119.41Q129.649 119.036 131.352 118.806Q133.593 118.52 134.988 118.377Q136.394 118.223 137.032 117.861Q137.68 117.487 137.68 116.575L137.68 116.444Q137.68 114.082 136.394 112.774Q135.109 111.456 132.505 111.456Q129.803 111.456 128.265 112.642Q126.737 113.829 126.111 115.169L122.53 113.884Q123.497 111.654 125.101 110.401Q126.705 109.138 128.616 108.643Q130.528 108.138 132.373 108.138Q133.56 108.138 135.098 108.424Q136.647 108.698 138.086 109.566Q139.537 110.423 140.492 112.17Q141.459 113.906 141.459 116.828L141.459 133L137.68 133L137.68 129.671L137.493 129.671Q137.109 130.473 136.208 131.385Q135.318 132.297 133.835 132.934Q132.352 133.571 130.209 133.571ZM130.78 130.188Q133.022 130.188 134.56 129.309Q136.098 128.43 136.889 127.045Q137.68 125.65 137.68 124.112L137.68 120.662Q137.449 120.948 136.636 121.179Q135.834 121.409 134.779 121.585Q133.736 121.75 132.747 121.871Q131.769 121.992 131.165 122.069Q129.693 122.266 128.418 122.695Q127.155 123.112 126.375 123.947Q125.606 124.782 125.606 126.221Q125.606 128.188 127.067 129.188Q128.528 130.188 130.78 130.188Z" fill-rule="nonzero" fill="rgb(224, 224, 224)"/>
		<path transform="matrix(1 0 0 1 217 631)" d="M148.356 133L148.356 108.457L152.004 108.457L152.004 112.159L152.257 112.159Q152.927 110.335 154.685 109.204Q156.442 108.072 158.651 108.072Q159.068 108.072 159.683 108.094Q160.31 108.105 160.628 108.138L160.628 111.972Q160.441 111.917 159.76 111.818Q159.079 111.719 158.332 111.719Q156.541 111.719 155.135 112.467Q153.74 113.203 152.927 114.51Q152.125 115.806 152.125 117.465L152.125 133L148.356 133Z" fill-rule="nonzero" fill="rgb(224, 224, 224)"/>
		<path transform="matrix(1 0 0 1 217 631)" d="M173.609 133.516Q170.544 133.516 168.193 131.956Q165.842 130.396 164.512 127.551Q163.183 124.694 163.183 120.794Q163.183 116.927 164.512 114.082Q165.842 111.236 168.204 109.687Q170.566 108.138 173.675 108.138Q176.07 108.138 177.465 108.929Q178.86 109.72 179.607 110.72Q180.354 111.719 180.761 112.357L181.091 112.357L181.091 100.272L184.859 100.272L184.859 133L181.211 133L181.211 129.232L180.761 129.232Q180.354 129.902 179.585 130.924Q178.816 131.934 177.388 132.725Q175.971 133.516 173.609 133.516ZM174.114 130.122Q176.388 130.122 177.948 128.935Q179.52 127.738 180.333 125.628Q181.146 123.508 181.146 120.728Q181.146 117.982 180.344 115.916Q179.552 113.84 177.981 112.686Q176.421 111.522 174.114 111.522Q171.719 111.522 170.126 112.752Q168.544 113.972 167.753 116.059Q166.962 118.135 166.962 120.728Q166.962 123.343 167.764 125.485Q168.577 127.617 170.159 128.869Q171.752 130.122 174.114 130.122Z" fill-rule="nonzero" fill="rgb(224, 224, 224)"/>
		<path transform="matrix(1 0 0 1 217 631)" d="M259.646 133L259.646 108.457L263.293 108.457L263.293 112.291L263.612 112.291Q264.381 110.324 266.084 109.237Q267.798 108.138 270.193 108.138Q272.621 108.138 274.247 109.237Q275.873 110.324 276.773 112.291L277.037 112.291Q277.982 110.39 279.861 109.27Q281.75 108.138 284.387 108.138Q287.672 108.138 289.77 110.192Q291.869 112.247 291.869 116.575L291.869 133L288.089 133L288.089 116.575Q288.089 113.851 286.606 112.686Q285.123 111.522 283.102 111.522Q280.52 111.522 279.092 113.082Q277.674 114.642 277.674 117.015L277.674 133L273.84 133L273.84 116.191Q273.84 114.093 272.478 112.807Q271.127 111.522 268.984 111.522Q267.512 111.522 266.238 112.313Q264.974 113.093 264.194 114.477Q263.414 115.85 263.414 117.663L263.414 133L259.646 133Z" fill-rule="nonzero" fill="rgb(224, 224, 224)"/>
		<path transform="matrix(1 0 0 1 217 631)" d="M305.994 133.571Q303.654 133.571 301.753 132.692Q299.853 131.802 298.732 130.122Q297.611 128.43 297.611 126.035Q297.611 123.925 298.446 122.607Q299.281 121.289 300.666 120.542Q302.061 119.783 303.742 119.41Q305.434 119.036 307.137 118.806Q309.378 118.52 310.773 118.377Q312.179 118.223 312.816 117.861Q313.465 117.487 313.465 116.575L313.465 116.444Q313.465 114.082 312.179 112.774Q310.894 111.456 308.29 111.456Q305.587 111.456 304.049 112.642Q302.522 113.829 301.896 115.169L298.315 113.884Q299.281 111.654 300.885 110.401Q302.489 109.138 304.401 108.643Q306.313 108.138 308.158 108.138Q309.345 108.138 310.883 108.424Q312.432 108.698 313.871 109.566Q315.321 110.423 316.277 112.17Q317.244 113.906 317.244 116.828L317.244 133L313.465 133L313.465 129.671L313.278 129.671Q312.893 130.473 311.992 131.385Q311.103 132.297 309.619 132.934Q308.136 133.571 305.994 133.571ZM306.565 130.188Q308.806 130.188 310.345 129.309Q311.883 128.43 312.674 127.045Q313.465 125.65 313.465 124.112L313.465 120.662Q313.234 120.948 312.421 121.179Q311.619 121.409 310.564 121.585Q309.521 121.75 308.532 121.871Q307.554 121.992 306.95 122.069Q305.478 122.266 304.203 122.695Q302.94 123.112 302.16 123.947Q301.391 124.782 301.391 126.221Q301.391 128.188 302.852 129.188Q304.313 130.188 306.565 130.188Z" fill-rule="nonzero" fill="rgb(224, 224, 224)"/>
		<path transform="matrix(1 0 0 1 217 631)" d="M324.141 133L324.141 108.457L327.789 108.457L327.789 112.159L328.041 112.159Q328.711 110.335 330.469 109.204Q332.227 108.072 334.435 108.072Q334.853 108.072 335.468 108.094Q336.094 108.105 336.413 108.138L336.413 111.972Q336.226 111.917 335.545 111.818Q334.864 111.719 334.117 111.719Q332.326 111.719 330.92 112.467Q329.524 113.203 328.711 114.51Q327.909 115.806 327.909 117.465L327.909 133L324.141 133Z" fill-rule="nonzero" fill="rgb(224, 224, 224)"/>
		<path transform="matrix(1 0 0 1 217 631)" d="M344.404 124.046L344.338 119.388L345.107 119.388L355.852 108.457L360.51 108.457L349.073 120.025L348.754 120.025L344.404 124.046ZM340.888 133L340.888 100.272L344.657 100.272L344.657 133L340.888 133ZM356.489 133L346.898 120.86L349.578 118.234L361.279 133L356.489 133Z" fill-rule="nonzero" fill="rgb(224, 224, 224)"/>
		<path transform="matrix(1 0 0 1 217 631)" d="M380.838 122.969L380.838 108.457L384.607 108.457L384.607 133L380.838 133L380.838 128.847L380.586 128.847Q379.718 130.715 377.894 132.022Q376.081 133.319 373.302 133.319Q370.994 133.319 369.204 132.308Q367.413 131.286 366.391 129.243Q365.369 127.188 365.369 124.046L365.369 108.457L369.138 108.457L369.138 123.793Q369.138 126.485 370.643 128.078Q372.159 129.671 374.51 129.671Q375.916 129.671 377.378 128.957Q378.839 128.243 379.838 126.76Q380.838 125.266 380.838 122.969Z" fill-rule="nonzero" fill="rgb(224, 224, 224)"/>
		<path transform="matrix(1 0 0 1 217 631)" d="M391.513 142.207L391.513 108.457L395.16 108.457L395.16 112.357L395.611 112.357Q396.017 111.719 396.764 110.72Q397.511 109.72 398.907 108.929Q400.302 108.138 402.697 108.138Q405.806 108.138 408.168 109.687Q410.53 111.236 411.859 114.082Q413.189 116.927 413.189 120.794Q413.189 124.694 411.859 127.551Q410.53 130.396 408.179 131.956Q405.828 133.516 402.763 133.516Q400.401 133.516 398.972 132.725Q397.555 131.934 396.786 130.924Q396.017 129.902 395.611 129.232L395.281 129.232L395.281 142.207L391.513 142.207ZM395.226 120.728Q395.226 123.508 396.039 125.628Q396.852 127.738 398.412 128.935Q399.983 130.122 402.257 130.122Q404.619 130.122 406.201 128.869Q407.794 127.617 408.596 125.485Q409.409 123.343 409.409 120.728Q409.409 118.135 408.618 116.059Q407.827 113.972 406.234 112.752Q404.652 111.522 402.257 111.522Q399.95 111.522 398.379 112.686Q396.819 113.84 396.017 115.916Q395.226 117.982 395.226 120.728Z" fill-rule="nonzero" fill="rgb(224, 224, 224)"/>
		<path transform="matrix(1 0 0 1 217 631)" d="M490.079 100.272L490.079 133L486.311 133L486.311 100.272L490.079 100.272Z" fill-rule="nonzero" fill="rgb(224, 224, 224)"/>
		<path transform="matrix(1 0 0 1 217 631)" d="M504.214 133.571Q501.874 133.571 499.974 132.692Q498.073 131.802 496.952 130.122Q495.832 128.43 495.832 126.035Q495.832 123.925 496.667 122.607Q497.502 121.289 498.886 120.542Q500.281 119.783 501.962 119.41Q503.654 119.036 505.357 118.806Q507.598 118.52 508.993 118.377Q510.4 118.223 511.037 117.861Q511.685 117.487 511.685 116.575L511.685 116.444Q511.685 114.082 510.4 112.774Q509.114 111.456 506.51 111.456Q503.808 111.456 502.27 112.642Q500.743 113.829 500.116 115.169L496.535 113.884Q497.502 111.654 499.106 110.401Q500.71 109.138 502.621 108.643Q504.533 108.138 506.379 108.138Q507.565 108.138 509.103 108.424Q510.652 108.698 512.091 109.566Q513.542 110.423 514.497 112.17Q515.464 113.906 515.464 116.828L515.464 133L511.685 133L511.685 129.671L511.498 129.671Q511.114 130.473 510.213 131.385Q509.323 132.297 507.84 132.934Q506.357 133.571 504.214 133.571ZM504.786 130.188Q507.027 130.188 508.565 129.309Q510.103 128.43 510.894 127.045Q511.685 125.65 511.685 124.112L511.685 120.662Q511.454 120.948 510.641 121.179Q509.839 121.409 508.785 121.585Q507.741 121.75 506.752 121.871Q505.774 121.992 505.17 122.069Q503.698 122.266 502.424 122.695Q501.16 123.112 500.38 123.947Q499.611 124.782 499.611 126.221Q499.611 128.188 501.072 129.188Q502.533 130.188 504.786 130.188Z" fill-rule="nonzero" fill="rgb(224, 224, 224)"/>
		<path transform="matrix(1 0 0 1 217 631)" d="M526.13 118.234L526.13 133L522.362 133L522.362 108.457L526.009 108.457L526.009 112.291L526.328 112.291Q527.185 110.423 528.942 109.281Q530.7 108.138 533.491 108.138Q535.974 108.138 537.841 109.149Q539.72 110.159 540.753 112.214Q541.796 114.268 541.796 117.399L541.796 133L538.028 133L538.028 117.663Q538.028 114.763 536.523 113.148Q535.018 111.522 532.403 111.522Q530.59 111.522 529.173 112.313Q527.767 113.093 526.943 114.598Q526.13 116.092 526.13 118.234Z" fill-rule="nonzero" fill="rgb(224, 224, 224)"/>
		<path transform="matrix(1 0 0 1 217 631)" d="M558.606 142.712Q555.871 142.712 553.904 142.02Q551.938 141.328 550.63 140.196Q549.334 139.075 548.576 137.79L551.575 135.681Q552.091 136.351 552.872 137.219Q553.652 138.098 555.014 138.746Q556.387 139.394 558.606 139.394Q561.584 139.394 563.517 137.955Q565.451 136.516 565.451 133.45L565.451 128.463L565.121 128.463Q564.715 129.133 563.946 130.122Q563.188 131.099 561.77 131.857Q560.364 132.615 557.969 132.615Q554.992 132.615 552.63 131.209Q550.279 129.803 548.905 127.122Q547.543 124.431 547.543 120.596Q547.543 116.828 548.872 114.027Q550.202 111.214 552.564 109.676Q554.926 108.138 558.035 108.138Q560.43 108.138 561.836 108.929Q563.254 109.72 564.012 110.72Q564.77 111.719 565.187 112.357L565.572 112.357L565.572 108.457L569.219 108.457L569.219 133.703Q569.219 136.867 567.78 138.856Q566.352 140.844 563.946 141.778Q561.551 142.712 558.606 142.712ZM558.475 129.232Q560.749 129.232 562.309 128.199Q563.88 127.155 564.693 125.211Q565.506 123.255 565.506 120.531Q565.506 117.883 564.704 115.861Q563.913 113.829 562.342 112.675Q560.782 111.522 558.475 111.522Q556.08 111.522 554.487 112.741Q552.904 113.95 552.113 116.004Q551.322 118.048 551.322 120.531Q551.322 123.09 552.124 125.057Q552.937 127.012 554.519 128.122Q556.112 129.232 558.475 129.232Z" fill-rule="nonzero" fill="rgb(224, 224, 224)"/>
		<path transform="matrix(1 0 0 1 217 631)" d="M591.587 122.969L591.587 108.457L595.355 108.457L595.355 133L591.587 133L591.587 128.847L591.334 128.847Q590.466 130.715 588.643 132.022Q586.83 133.319 584.05 133.319Q581.743 133.319 579.953 132.308Q578.162 131.286 577.14 129.243Q576.118 127.188 576.118 124.046L576.118 108.457L579.887 108.457L579.887 123.793Q579.887 126.485 581.392 128.078Q582.908 129.671 585.259 129.671Q586.665 129.671 588.126 128.957Q589.588 128.243 590.587 126.76Q591.587 125.266 591.587 122.969Z" fill-rule="nonzero" fill="rgb(224, 224, 224)"/>
		<path transform="matrix(1 0 0 1 217 631)" d="M609.491 133.571Q607.151 133.571 605.25 132.692Q603.349 131.802 602.229 130.122Q601.108 128.43 601.108 126.035Q601.108 123.925 601.943 122.607Q602.778 121.289 604.162 120.542Q605.558 119.783 607.238 119.41Q608.93 119.036 610.633 118.806Q612.874 118.52 614.27 118.377Q615.676 118.223 616.313 117.861Q616.961 117.487 616.961 116.575L616.961 116.444Q616.961 114.082 615.676 112.774Q614.391 111.456 611.787 111.456Q609.084 111.456 607.546 112.642Q606.019 113.829 605.393 115.169L601.811 113.884Q602.778 111.654 604.382 110.401Q605.986 109.138 607.898 108.643Q609.809 108.138 611.655 108.138Q612.841 108.138 614.38 108.424Q615.929 108.698 617.368 109.566Q618.818 110.423 619.774 112.17Q620.741 113.906 620.741 116.828L620.741 133L616.961 133L616.961 129.671L616.775 129.671Q616.39 130.473 615.489 131.385Q614.599 132.297 613.116 132.934Q611.633 133.571 609.491 133.571ZM610.062 130.188Q612.303 130.188 613.841 129.309Q615.379 128.43 616.17 127.045Q616.961 125.65 616.961 124.112L616.961 120.662Q616.731 120.948 615.918 121.179Q615.116 121.409 614.061 121.585Q613.017 121.75 612.029 121.871Q611.051 121.992 610.446 122.069Q608.974 122.266 607.7 122.695Q606.436 123.112 605.656 123.947Q604.887 124.782 604.887 126.221Q604.887 128.188 606.349 129.188Q607.81 130.188 610.062 130.188Z" fill-rule="nonzero" fill="rgb(224, 224, 224)"/>
		<path transform="matrix(1 0 0 1 217 631)" d="M637.548 142.712Q634.812 142.712 632.845 142.02Q630.879 141.328 629.571 140.196Q628.275 139.075 627.517 137.79L630.516 135.681Q631.033 136.351 631.813 137.219Q632.593 138.098 633.955 138.746Q635.328 139.394 637.548 139.394Q640.525 139.394 642.458 137.955Q644.392 136.516 644.392 133.45L644.392 128.463L644.062 128.463Q643.656 129.133 642.887 130.122Q642.129 131.099 640.712 131.857Q639.305 132.615 636.91 132.615Q633.933 132.615 631.571 131.209Q629.22 129.803 627.847 127.122Q626.484 124.431 626.484 120.596Q626.484 116.828 627.814 114.027Q629.143 111.214 631.505 109.676Q633.867 108.138 636.976 108.138Q639.371 108.138 640.778 108.929Q642.195 109.72 642.953 110.72Q643.711 111.719 644.128 112.357L644.513 112.357L644.513 108.457L648.16 108.457L648.16 133.703Q648.16 136.867 646.721 138.856Q645.293 140.844 642.887 141.778Q640.492 142.712 637.548 142.712ZM637.416 129.232Q639.69 129.232 641.25 128.199Q642.821 127.155 643.634 125.211Q644.447 123.255 644.447 120.531Q644.447 117.883 643.645 115.861Q642.854 113.829 641.283 112.675Q639.723 111.522 637.416 111.522Q635.021 111.522 633.428 112.741Q631.846 113.95 631.055 116.004Q630.264 118.048 630.264 120.531Q630.264 123.09 631.066 125.057Q631.879 127.012 633.461 128.122Q635.054 129.232 637.416 129.232Z" fill-rule="nonzero" fill="rgb(224, 224, 224)"/>
		<path transform="matrix(1 0 0 1 217 631)" d="M665.354 133.516Q661.805 133.516 659.234 131.945Q656.674 130.363 655.29 127.529Q653.906 124.694 653.906 120.915Q653.906 117.147 655.29 114.268Q656.674 111.379 659.157 109.764Q661.64 108.138 664.969 108.138Q666.892 108.138 668.759 108.775Q670.627 109.412 672.154 110.841Q673.692 112.269 674.604 114.62Q675.516 116.971 675.516 120.41L675.516 122.003L656.598 122.003L656.598 118.751L671.682 118.751Q671.682 116.663 670.858 115.037Q670.034 113.411 668.518 112.467Q667.013 111.522 664.969 111.522Q662.717 111.522 661.08 112.631Q659.443 113.741 658.564 115.521Q657.685 117.29 657.685 119.322L657.685 121.497Q657.685 124.277 658.652 126.199Q659.619 128.122 661.344 129.122Q663.069 130.122 665.354 130.122Q666.837 130.122 668.045 129.704Q669.254 129.276 670.133 128.419Q671.012 127.562 671.484 126.287L675.132 127.309Q674.56 129.166 673.198 130.561Q671.836 131.956 669.836 132.736Q667.848 133.516 665.354 133.516Z" fill-rule="nonzero" fill="rgb(224, 224, 224)"/>
		<path transform="matrix(1 0 0 1 217 631)" d="M759.575 108.457L759.575 111.654L746.347 111.654L746.347 108.457L759.575 108.457ZM750.302 133L750.302 105.062Q750.302 102.952 751.291 101.546Q752.291 100.14 753.873 99.4368Q755.455 98.7336 757.213 98.7336Q758.597 98.7336 759.476 98.9644Q760.355 99.1841 760.794 99.3818L759.706 102.634Q759.421 102.546 758.915 102.403Q758.41 102.249 757.597 102.249Q755.729 102.249 754.905 103.194Q754.081 104.139 754.081 105.963L754.081 133L750.302 133Z" fill-rule="nonzero" fill="rgb(224, 224, 224)"/>
		<path transform="matrix(1 0 0 1 217 631)" d="M773.832 133.516Q770.503 133.516 767.998 131.934Q765.504 130.352 764.098 127.507Q762.703 124.661 762.703 120.86Q762.703 117.015 764.098 114.158Q765.504 111.302 767.998 109.72Q770.503 108.138 773.832 108.138Q777.15 108.138 779.654 109.72Q782.159 111.302 783.555 114.158Q784.95 117.015 784.95 120.86Q784.95 124.661 783.555 127.507Q782.159 130.352 779.654 131.934Q777.15 133.516 773.832 133.516ZM773.832 130.122Q776.359 130.122 777.985 128.836Q779.611 127.54 780.391 125.43Q781.182 123.321 781.182 120.86Q781.182 118.399 780.391 116.279Q779.611 114.147 777.985 112.84Q776.359 111.522 773.832 111.522Q771.305 111.522 769.668 112.84Q768.042 114.147 767.262 116.279Q766.482 118.399 766.482 120.86Q766.482 123.321 767.262 125.43Q768.042 127.54 769.668 128.836Q771.305 130.122 773.832 130.122Z" fill-rule="nonzero" fill="rgb(224, 224, 224)"/>
		<path transform="matrix(1 0 0 1 217 631)" d="M790.703 133L790.703 108.457L794.35 108.457L794.35 112.159L794.603 112.159Q795.273 110.335 797.031 109.204Q798.789 108.072 800.997 108.072Q801.414 108.072 802.029 108.094Q802.656 108.105 802.974 108.138L802.974 111.972Q802.788 111.917 802.106 111.818Q801.425 111.719 800.678 111.719Q798.887 111.719 797.481 112.467Q796.086 113.203 795.273 114.51Q794.471 115.806 794.471 117.465L794.471 133L790.703 133Z" fill-rule="nonzero" fill="rgb(224, 224, 224)"/>
		<path transform="matrix(1 0 0 1 217 631)" d="M13.4253 211.516Q9.97559 211.516 7.48169 209.89Q4.98779 208.253 3.63647 205.397Q2.29614 202.53 2.29614 198.86Q2.29614 195.114 3.68042 192.246Q5.0647 189.379 7.54761 187.764Q10.0305 186.138 13.3594 186.138Q15.9521 186.138 18.0286 187.094Q20.105 188.05 21.4233 189.774Q22.7527 191.499 23.0713 193.806L19.303 193.806Q18.8745 192.125 17.3914 190.829Q15.9192 189.522 13.4253 189.522Q11.217 189.522 9.55811 190.664Q7.91016 191.807 6.9873 193.883Q6.07544 195.949 6.07544 198.728Q6.07544 201.574 6.97632 203.683Q7.8772 205.792 9.52515 206.957Q11.1841 208.122 13.4253 208.122Q14.8975 208.122 16.095 207.616Q17.2925 207.1 18.1165 206.144Q18.9514 205.188 19.303 203.837L23.0713 203.837Q22.7527 206.012 21.5002 207.748Q20.2478 209.484 18.1934 210.506Q16.1389 211.516 13.4253 211.516Z" fill-rule="nonzero" fill="rgb(224, 224, 224)"/>
		<path transform="matrix(1 0 0 1 217 631)" d="M28.5703 211L28.5703 186.457L32.2178 186.457L32.2178 190.159L32.4705 190.159Q33.1406 188.335 34.8984 187.204Q36.6562 186.072 38.8645 186.072Q39.282 186.072 39.8972 186.094Q40.5234 186.105 40.842 186.138L40.842 189.972Q40.6553 189.917 39.9741 189.818Q39.293 189.719 38.5459 189.719Q36.7551 189.719 35.3489 190.467Q33.9536 191.203 33.1406 192.51Q32.3386 193.806 32.3386 195.465L32.3386 211L28.5703 211Z" fill-rule="nonzero" fill="rgb(224, 224, 224)"/>
		<path transform="matrix(1 0 0 1 217 631)" d="M54.8445 211.516Q51.2959 211.516 48.7251 209.945Q46.1653 208.363 44.781 205.529Q43.3967 202.694 43.3967 198.915Q43.3967 195.147 44.781 192.268Q46.1653 189.379 48.6482 187.764Q51.1311 186.138 54.46 186.138Q56.3826 186.138 58.2502 186.775Q60.1179 187.412 61.645 188.841Q63.1831 190.269 64.095 192.62Q65.0068 194.971 65.0068 198.41L65.0068 200.003L46.0884 200.003L46.0884 196.751L61.1726 196.751Q61.1726 194.663 60.3486 193.037Q59.5247 191.411 58.0085 190.467Q56.5034 189.522 54.46 189.522Q52.2078 189.522 50.5708 190.631Q48.9338 191.741 48.0549 193.521Q47.176 195.29 47.176 197.322L47.176 199.497Q47.176 202.277 48.1428 204.199Q49.1096 206.122 50.8345 207.122Q52.5593 208.122 54.8445 208.122Q56.3276 208.122 57.5361 207.704Q58.7446 207.276 59.6235 206.419Q60.5024 205.562 60.9749 204.287L64.6223 205.309Q64.051 207.166 62.6887 208.561Q61.3264 209.956 59.3269 210.736Q57.3384 211.516 54.8445 211.516Z" fill-rule="nonzero" fill="rgb(224, 224, 224)"/>
		<path transform="matrix(1 0 0 1 217 631)" d="M77.9863 211.571Q75.6462 211.571 73.7456 210.692Q71.845 209.802 70.7244 208.122Q69.6038 206.43 69.6038 204.035Q69.6038 201.925 70.4387 200.607Q71.2737 199.289 72.658 198.542Q74.0532 197.783 75.7341 197.41Q77.426 197.036 79.1289 196.806Q81.3701 196.52 82.7654 196.377Q84.1716 196.223 84.8088 195.861Q85.457 195.487 85.457 194.575L85.457 194.444Q85.457 192.082 84.1716 190.774Q82.8862 189.456 80.2825 189.456Q77.5798 189.456 76.0417 190.642Q74.5146 191.829 73.8884 193.169L70.3069 191.884Q71.2737 189.654 72.8777 188.401Q74.4817 187.138 76.3933 186.643Q78.3049 186.138 80.1506 186.138Q81.3372 186.138 82.8752 186.424Q84.4243 186.698 85.8635 187.566Q87.3137 188.423 88.2695 190.17Q89.2363 191.906 89.2363 194.828L89.2363 211L85.457 211L85.457 207.671L85.2703 207.671Q84.8857 208.473 83.9849 209.385Q83.095 210.297 81.6118 210.934Q80.1287 211.571 77.9863 211.571ZM78.5576 208.188Q80.7988 208.188 82.3369 207.309Q83.875 206.43 84.666 205.045Q85.457 203.65 85.457 202.112L85.457 198.662Q85.2263 198.948 84.4133 199.179Q83.6113 199.409 82.5566 199.585Q81.5129 199.75 80.5242 199.871Q79.5464 199.992 78.9421 200.069Q77.47 200.266 76.1956 200.695Q74.9321 201.112 74.1521 201.947Q73.3831 202.782 73.3831 204.221Q73.3831 206.188 74.8442 207.188Q76.3054 208.188 78.5576 208.188Z" fill-rule="nonzero" fill="rgb(224, 224, 224)"/>
		<path transform="matrix(1 0 0 1 217 631)" d="M106.812 186.457L106.812 189.654L94.0901 189.654L94.0901 186.457L106.812 186.457ZM97.7925 180.579L101.572 180.579L101.572 203.969Q101.572 205.562 102.044 206.353Q102.517 207.144 103.253 207.407Q104 207.671 104.824 207.671Q105.45 207.671 105.845 207.605Q106.252 207.528 106.494 207.484L107.263 210.868Q106.878 211.011 106.186 211.165Q105.505 211.319 104.45 211.319Q102.846 211.319 101.319 210.637Q99.792 209.945 98.7922 208.539Q97.7925 207.133 97.7925 204.99L97.7925 180.579Z" fill-rule="nonzero" fill="rgb(224, 224, 224)"/>
		<path transform="matrix(1 0 0 1 217 631)" d="M112.497 211L112.497 186.457L116.265 186.457L116.265 211L112.497 211ZM114.42 182.359Q113.31 182.359 112.519 181.612Q111.728 180.865 111.728 179.81Q111.728 178.755 112.519 178.008Q113.31 177.25 114.42 177.25Q115.518 177.25 116.309 178.008Q117.1 178.755 117.1 179.81Q117.1 180.865 116.309 181.612Q115.518 182.359 114.42 182.359Z" fill-rule="nonzero" fill="rgb(224, 224, 224)"/>
		<path transform="matrix(1 0 0 1 217 631)" d="M126.94 196.234L126.94 211L123.172 211L123.172 186.457L126.819 186.457L126.819 190.291L127.138 190.291Q127.995 188.423 129.753 187.281Q131.51 186.138 134.301 186.138Q136.784 186.138 138.652 187.149Q140.53 188.159 141.563 190.214Q142.607 192.268 142.607 195.399L142.607 211L138.838 211L138.838 195.663Q138.838 192.763 137.333 191.148Q135.828 189.522 133.213 189.522Q131.401 189.522 129.983 190.313Q128.577 191.093 127.753 192.598Q126.94 194.092 126.94 196.234Z" fill-rule="nonzero" fill="rgb(224, 224, 224)"/>
		<path transform="matrix(1 0 0 1 217 631)" d="M159.417 220.712Q156.681 220.712 154.714 220.02Q152.748 219.328 151.44 218.196Q150.144 217.075 149.386 215.79L152.385 213.681Q152.902 214.351 153.682 215.219Q154.462 216.098 155.824 216.746Q157.197 217.394 159.417 217.394Q162.394 217.394 164.327 215.955Q166.261 214.516 166.261 211.45L166.261 206.463L165.931 206.463Q165.525 207.133 164.756 208.122Q163.998 209.099 162.581 209.857Q161.174 210.615 158.779 210.615Q155.802 210.615 153.44 209.209Q151.089 207.803 149.716 205.122Q148.353 202.431 148.353 198.596Q148.353 194.828 149.683 192.027Q151.012 189.214 153.374 187.676Q155.736 186.138 158.845 186.138Q161.24 186.138 162.646 186.929Q164.064 187.72 164.822 188.72Q165.58 189.719 165.997 190.357L166.382 190.357L166.382 186.457L170.029 186.457L170.029 211.703Q170.029 214.867 168.59 216.856Q167.162 218.844 164.756 219.778Q162.361 220.712 159.417 220.712ZM159.285 207.232Q161.559 207.232 163.119 206.199Q164.69 205.155 165.503 203.211Q166.316 201.255 166.316 198.531Q166.316 195.883 165.514 193.861Q164.723 191.829 163.152 190.675Q161.592 189.522 159.285 189.522Q156.89 189.522 155.297 190.741Q153.715 191.95 152.924 194.004Q152.133 196.048 152.133 198.531Q152.133 201.09 152.935 203.057Q153.748 205.012 155.33 206.122Q156.923 207.232 159.285 207.232Z" fill-rule="nonzero" fill="rgb(224, 224, 224)"/>
		<path transform="matrix(1 0 0 1 217 631)" d="M195.144 211L187.673 186.457L191.628 186.457L196.935 205.243L197.198 205.243L202.439 186.457L206.46 186.457L211.634 205.188L211.898 205.188L217.204 186.457L221.159 186.457L213.689 211L209.975 211L204.603 192.147L204.229 192.147L198.857 211L195.144 211Z" fill-rule="nonzero" fill="rgb(224, 224, 224)"/>
		<path transform="matrix(1 0 0 1 217 631)" d="M235.61 211.516Q232.062 211.516 229.491 209.945Q226.931 208.363 225.547 205.529Q224.162 202.694 224.162 198.915Q224.162 195.147 225.547 192.268Q226.931 189.379 229.414 187.764Q231.897 186.138 235.226 186.138Q237.148 186.138 239.016 186.775Q240.884 187.412 242.411 188.841Q243.949 190.269 244.861 192.62Q245.772 194.971 245.772 198.41L245.772 200.003L226.854 200.003L226.854 196.751L241.938 196.751Q241.938 194.663 241.114 193.037Q240.29 191.411 238.774 190.467Q237.269 189.522 235.226 189.522Q232.973 189.522 231.336 190.631Q229.699 191.741 228.821 193.521Q227.942 195.29 227.942 197.322L227.942 199.497Q227.942 202.277 228.908 204.199Q229.875 206.122 231.6 207.122Q233.325 208.122 235.61 208.122Q237.093 208.122 238.302 207.704Q239.51 207.276 240.389 206.419Q241.268 205.562 241.74 204.287L245.388 205.309Q244.817 207.166 243.454 208.561Q242.092 209.956 240.093 210.736Q238.104 211.516 235.61 211.516Z" fill-rule="nonzero" fill="rgb(224, 224, 224)"/>
		<path transform="matrix(1 0 0 1 217 631)" d="M252.04 211L252.04 178.272L255.808 178.272L255.808 190.357L256.126 190.357Q256.544 189.719 257.28 188.72Q258.027 187.72 259.422 186.929Q260.829 186.138 263.224 186.138Q266.322 186.138 268.684 187.687Q271.057 189.236 272.375 192.082Q273.705 194.927 273.705 198.794Q273.705 202.694 272.375 205.551Q271.057 208.396 268.706 209.956Q266.355 211.516 263.29 211.516Q260.917 211.516 259.499 210.725Q258.082 209.934 257.313 208.924Q256.544 207.902 256.126 207.232L255.676 207.232L255.676 211L252.04 211ZM255.742 198.728Q255.742 201.508 256.555 203.628Q257.379 205.738 258.939 206.935Q260.51 208.122 262.773 208.122Q265.135 208.122 266.728 206.869Q268.321 205.617 269.123 203.485Q269.936 201.343 269.936 198.728Q269.936 196.135 269.145 194.059Q268.354 191.972 266.761 190.752Q265.168 189.522 262.773 189.522Q260.477 189.522 258.906 190.686Q257.346 191.84 256.544 193.916Q255.742 195.982 255.742 198.728Z" fill-rule="nonzero" fill="rgb(224, 224, 224)"/>
		<path transform="matrix(1 0 0 1 217 631)" d="M292.113 220.207L292.113 186.457L295.76 186.457L295.76 190.357L296.21 190.357Q296.617 189.719 297.364 188.72Q298.111 187.72 299.506 186.929Q300.902 186.138 303.297 186.138Q306.406 186.138 308.768 187.687Q311.13 189.236 312.459 192.082Q313.789 194.927 313.789 198.794Q313.789 202.694 312.459 205.551Q311.13 208.396 308.779 209.956Q306.428 211.516 303.363 211.516Q301 211.516 299.572 210.725Q298.155 209.934 297.386 208.924Q296.617 207.902 296.21 207.232L295.881 207.232L295.881 220.207L292.113 220.207ZM295.826 198.728Q295.826 201.508 296.639 203.628Q297.452 205.738 299.012 206.935Q300.583 208.122 302.857 208.122Q305.219 208.122 306.801 206.869Q308.394 205.617 309.196 203.485Q310.009 201.343 310.009 198.728Q310.009 196.135 309.218 194.059Q308.427 191.972 306.834 190.752Q305.252 189.522 302.857 189.522Q300.55 189.522 298.979 190.686Q297.419 191.84 296.617 193.916Q295.826 195.982 295.826 198.728Z" fill-rule="nonzero" fill="rgb(224, 224, 224)"/>
		<path transform="matrix(1 0 0 1 217 631)" d="M326.763 211.571Q324.423 211.571 322.522 210.692Q320.622 209.802 319.501 208.122Q318.381 206.43 318.381 204.035Q318.381 201.925 319.216 200.607Q320.051 199.289 321.435 198.542Q322.83 197.783 324.511 197.41Q326.203 197.036 327.906 196.806Q330.147 196.52 331.542 196.377Q332.948 196.223 333.586 195.861Q334.234 195.487 334.234 194.575L334.234 194.444Q334.234 192.082 332.948 190.774Q331.663 189.456 329.059 189.456Q326.357 189.456 324.819 190.642Q323.292 191.829 322.665 193.169L319.084 191.884Q320.051 189.654 321.655 188.401Q323.259 187.138 325.17 186.643Q327.082 186.138 328.927 186.138Q330.114 186.138 331.652 186.424Q333.201 186.698 334.64 187.566Q336.091 188.423 337.046 190.17Q338.013 191.906 338.013 194.828L338.013 211L334.234 211L334.234 207.671L334.047 207.671Q333.663 208.473 332.762 209.385Q331.872 210.297 330.389 210.934Q328.906 211.571 326.763 211.571ZM327.334 208.188Q329.576 208.188 331.114 207.309Q332.652 206.43 333.443 205.045Q334.234 203.65 334.234 202.112L334.234 198.662Q334.003 198.948 333.19 199.179Q332.388 199.409 331.333 199.585Q330.29 199.75 329.301 199.871Q328.323 199.992 327.719 200.069Q326.247 200.266 324.972 200.695Q323.709 201.112 322.929 201.947Q322.16 202.782 322.16 204.221Q322.16 206.188 323.621 207.188Q325.082 208.188 327.334 208.188Z" fill-rule="nonzero" fill="rgb(224, 224, 224)"/>
		<path transform="matrix(1 0 0 1 217 631)" d="M354.82 220.712Q352.084 220.712 350.118 220.02Q348.151 219.328 346.844 218.196Q345.548 217.075 344.79 215.79L347.789 213.681Q348.305 214.351 349.085 215.219Q349.865 216.098 351.228 216.746Q352.601 217.394 354.82 217.394Q357.797 217.394 359.731 215.955Q361.665 214.516 361.665 211.45L361.665 206.463L361.335 206.463Q360.928 207.133 360.159 208.122Q359.401 209.099 357.984 209.857Q356.578 210.615 354.183 210.615Q351.206 210.615 348.844 209.209Q346.492 207.803 345.119 205.122Q343.757 202.431 343.757 198.596Q343.757 194.828 345.086 192.027Q346.416 189.214 348.778 187.676Q351.14 186.138 354.249 186.138Q356.644 186.138 358.05 186.929Q359.467 187.72 360.225 188.72Q360.983 189.719 361.401 190.357L361.785 190.357L361.785 186.457L365.433 186.457L365.433 211.703Q365.433 214.867 363.994 216.856Q362.565 218.844 360.159 219.778Q357.764 220.712 354.82 220.712ZM354.688 207.232Q356.962 207.232 358.522 206.199Q360.094 205.155 360.906 203.211Q361.719 201.255 361.719 198.531Q361.719 195.883 360.917 193.861Q360.126 191.829 358.555 190.675Q356.995 189.522 354.688 189.522Q352.293 189.522 350.7 190.741Q349.118 191.95 348.327 194.004Q347.536 196.048 347.536 198.531Q347.536 201.09 348.338 203.057Q349.151 205.012 350.733 206.122Q352.326 207.232 354.688 207.232Z" fill-rule="nonzero" fill="rgb(224, 224, 224)"/>
		<path transform="matrix(1 0 0 1 217 631)" d="M382.626 211.516Q379.078 211.516 376.507 209.945Q373.947 208.363 372.563 205.529Q371.178 202.694 371.178 198.915Q371.178 195.147 372.563 192.268Q373.947 189.379 376.43 187.764Q378.913 186.138 382.242 186.138Q384.164 186.138 386.032 186.775Q387.9 187.412 389.427 188.841Q390.965 190.269 391.877 192.62Q392.789 194.971 392.789 198.41L392.789 200.003L373.87 200.003L373.87 196.751L388.954 196.751Q388.954 194.663 388.13 193.037Q387.306 191.411 385.79 190.467Q384.285 189.522 382.242 189.522Q379.99 189.522 378.353 190.631Q376.716 191.741 375.837 193.521Q374.958 195.29 374.958 197.322L374.958 199.497Q374.958 202.277 375.925 204.199Q376.891 206.122 378.616 207.122Q380.341 208.122 382.626 208.122Q384.109 208.122 385.318 207.704Q386.526 207.276 387.405 206.419Q388.284 205.562 388.757 204.287L392.404 205.309Q391.833 207.166 390.47 208.561Q389.108 209.956 387.109 210.736Q385.12 211.516 382.626 211.516Z" fill-rule="nonzero" fill="rgb(224, 224, 224)"/>
		<path transform="matrix(1 0 0 1 217 631)" d="M415.931 191.95L412.536 192.906Q412.217 192.06 411.602 191.258Q410.987 190.445 409.932 189.917Q408.877 189.39 407.229 189.39Q404.977 189.39 403.483 190.423Q401.989 191.455 401.989 193.037Q401.989 194.444 403.011 195.257Q404.043 196.07 406.208 196.619L409.855 197.509Q413.151 198.311 414.755 199.948Q416.37 201.585 416.37 204.156Q416.37 206.265 415.162 207.935Q413.964 209.594 411.8 210.561Q409.646 211.516 406.79 211.516Q403.033 211.516 400.572 209.89Q398.111 208.253 397.452 205.122L401.033 204.221Q401.55 206.21 402.978 207.199Q404.406 208.188 406.724 208.188Q409.361 208.188 410.921 207.067Q412.481 205.935 412.481 204.353Q412.481 203.079 411.58 202.211Q410.69 201.332 408.833 200.904L404.747 199.937Q401.374 199.146 399.792 197.465Q398.221 195.773 398.221 193.235Q398.221 191.148 399.396 189.555Q400.572 187.962 402.604 187.05Q404.648 186.138 407.229 186.138Q410.877 186.138 412.964 187.742Q415.052 189.335 415.931 191.95Z" fill-rule="nonzero" fill="rgb(224, 224, 224)"/>
		<path transform="matrix(1 0 0 1 217 631)" d="M441.947 211.571Q439.607 211.571 437.706 210.692Q435.806 209.802 434.685 208.122Q433.564 206.43 433.564 204.035Q433.564 201.925 434.399 200.607Q435.234 199.289 436.619 198.542Q438.014 197.783 439.695 197.41Q441.387 197.036 443.089 196.806Q445.331 196.52 446.726 196.377Q448.132 196.223 448.769 195.861Q449.418 195.487 449.418 194.575L449.418 194.444Q449.418 192.082 448.132 190.774Q446.847 189.456 444.243 189.456Q441.54 189.456 440.002 190.642Q438.475 191.829 437.849 193.169L434.267 191.884Q435.234 189.654 436.838 188.401Q438.442 187.138 440.354 186.643Q442.266 186.138 444.111 186.138Q445.298 186.138 446.836 186.424Q448.385 186.698 449.824 187.566Q451.274 188.423 452.23 190.17Q453.197 191.906 453.197 194.828L453.197 211L449.418 211L449.418 207.671L449.231 207.671Q448.846 208.473 447.945 209.385Q447.056 210.297 445.572 210.934Q444.089 211.571 441.947 211.571ZM442.518 208.188Q444.759 208.188 446.297 207.309Q447.836 206.43 448.627 205.045Q449.418 203.65 449.418 202.112L449.418 198.662Q449.187 198.948 448.374 199.179Q447.572 199.409 446.517 199.585Q445.474 199.75 444.485 199.871Q443.507 199.992 442.903 200.069Q441.431 200.266 440.156 200.695Q438.893 201.112 438.113 201.947Q437.344 202.782 437.344 204.221Q437.344 206.188 438.805 207.188Q440.266 208.188 442.518 208.188Z" fill-rule="nonzero" fill="rgb(224, 224, 224)"/>
		<path transform="matrix(1 0 0 1 217 631)" d="M463.863 196.234L463.863 211L460.094 211L460.094 186.457L463.742 186.457L463.742 190.291L464.06 190.291Q464.917 188.423 466.675 187.281Q468.433 186.138 471.224 186.138Q473.706 186.138 475.574 187.149Q477.453 188.159 478.485 190.214Q479.529 192.268 479.529 195.399L479.529 211L475.761 211L475.761 195.663Q475.761 192.763 474.256 191.148Q472.751 189.522 470.136 189.522Q468.323 189.522 466.906 190.313Q465.5 191.093 464.676 192.598Q463.863 194.092 463.863 196.234Z" fill-rule="nonzero" fill="rgb(224, 224, 224)"/>
		<path transform="matrix(1 0 0 1 217 631)" d="M495.702 211.516Q492.637 211.516 490.286 209.956Q487.934 208.396 486.605 205.551Q485.276 202.694 485.276 198.794Q485.276 194.927 486.605 192.082Q487.934 189.236 490.297 187.687Q492.659 186.138 495.768 186.138Q498.163 186.138 499.558 186.929Q500.953 187.72 501.7 188.72Q502.447 189.719 502.854 190.357L503.183 190.357L503.183 178.272L506.952 178.272L506.952 211L503.304 211L503.304 207.232L502.854 207.232Q502.447 207.902 501.678 208.924Q500.909 209.934 499.481 210.725Q498.064 211.516 495.702 211.516ZM496.207 208.122Q498.481 208.122 500.041 206.935Q501.612 205.738 502.425 203.628Q503.238 201.508 503.238 198.728Q503.238 195.982 502.436 193.916Q501.645 191.84 500.074 190.686Q498.514 189.522 496.207 189.522Q493.812 189.522 492.219 190.752Q490.637 191.972 489.846 194.059Q489.055 196.135 489.055 198.728Q489.055 201.343 489.857 203.485Q490.67 205.617 492.252 206.869Q493.845 208.122 496.207 208.122Z" fill-rule="nonzero" fill="rgb(224, 224, 224)"/>
		<path transform="matrix(1 0 0 1 217 631)" d="M534.248 211.571Q531.908 211.571 530.007 210.692Q528.106 209.802 526.986 208.122Q525.865 206.43 525.865 204.035Q525.865 201.925 526.7 200.607Q527.535 199.289 528.919 198.542Q530.315 197.783 531.995 197.41Q533.687 197.036 535.39 196.806Q537.631 196.52 539.027 196.377Q540.433 196.223 541.07 195.861Q541.718 195.487 541.718 194.575L541.718 194.444Q541.718 192.082 540.433 190.774Q539.148 189.456 536.544 189.456Q533.841 189.456 532.303 190.642Q530.776 191.829 530.15 193.169L526.568 191.884Q527.535 189.654 529.139 188.401Q530.743 187.138 532.655 186.643Q534.566 186.138 536.412 186.138Q537.599 186.138 539.137 186.424Q540.686 186.698 542.125 187.566Q543.575 188.423 544.531 190.17Q545.498 191.906 545.498 194.828L545.498 211L541.718 211L541.718 207.671L541.532 207.671Q541.147 208.473 540.246 209.385Q539.356 210.297 537.873 210.934Q536.39 211.571 534.248 211.571ZM534.819 208.188Q537.06 208.188 538.598 207.309Q540.136 206.43 540.927 205.045Q541.718 203.65 541.718 202.112L541.718 198.662Q541.488 198.948 540.675 199.179Q539.873 199.409 538.818 199.585Q537.774 199.75 536.786 199.871Q535.808 199.992 535.203 200.069Q533.731 200.266 532.457 200.695Q531.193 201.112 530.413 201.947Q529.644 202.782 529.644 204.221Q529.644 206.188 531.106 207.188Q532.567 208.188 534.819 208.188Z" fill-rule="nonzero" fill="rgb(224, 224, 224)"/>
		<path transform="matrix(1 0 0 1 217 631)" d="M552.395 220.207L552.395 186.457L556.042 186.457L556.042 190.357L556.493 190.357Q556.899 189.719 557.646 188.72Q558.393 187.72 559.788 186.929Q561.184 186.138 563.579 186.138Q566.688 186.138 569.05 187.687Q571.412 189.236 572.741 192.082Q574.071 194.927 574.071 198.794Q574.071 202.694 572.741 205.551Q571.412 208.396 569.061 209.956Q566.71 211.516 563.645 211.516Q561.283 211.516 559.854 210.725Q558.437 209.934 557.668 208.924Q556.899 207.902 556.493 207.232L556.163 207.232L556.163 220.207L552.395 220.207ZM556.108 198.728Q556.108 201.508 556.921 203.628Q557.734 205.738 559.294 206.935Q560.865 208.122 563.139 208.122Q565.501 208.122 567.083 206.869Q568.676 205.617 569.478 203.485Q570.291 201.343 570.291 198.728Q570.291 196.135 569.5 194.059Q568.709 191.972 567.116 190.752Q565.534 189.522 563.139 189.522Q560.832 189.522 559.261 190.686Q557.701 191.84 556.899 193.916Q556.108 195.982 556.108 198.728Z" fill-rule="nonzero" fill="rgb(224, 224, 224)"/>
		<path transform="matrix(1 0 0 1 217 631)" d="M579.817 220.207L579.817 186.457L583.464 186.457L583.464 190.357L583.914 190.357Q584.321 189.719 585.068 188.72Q585.815 187.72 587.21 186.929Q588.606 186.138 591.001 186.138Q594.11 186.138 596.472 187.687Q598.834 189.236 600.163 192.082Q601.493 194.927 601.493 198.794Q601.493 202.694 600.163 205.551Q598.834 208.396 596.483 209.956Q594.132 211.516 591.067 211.516Q588.704 211.516 587.276 210.725Q585.859 209.934 585.09 208.924Q584.321 207.902 583.914 207.232L583.585 207.232L583.585 220.207L579.817 220.207ZM583.53 198.728Q583.53 201.508 584.343 203.628Q585.156 205.738 586.716 206.935Q588.287 208.122 590.561 208.122Q592.923 208.122 594.505 206.869Q596.098 205.617 596.9 203.485Q597.713 201.343 597.713 198.728Q597.713 196.135 596.922 194.059Q596.131 191.972 594.538 190.752Q592.956 189.522 590.561 189.522Q588.254 189.522 586.683 190.686Q585.123 191.84 584.321 193.916Q583.53 195.982 583.53 198.728Z" fill-rule="nonzero" fill="rgb(224, 224, 224)"/>
		<path transform="matrix(1 0 0 1 217 631)" d="M611.006 178.272L611.006 211L607.238 211L607.238 178.272L611.006 178.272Z" fill-rule="nonzero" fill="rgb(224, 224, 224)"/>
		<path transform="matrix(1 0 0 1 217 631)" d="M617.913 211L617.913 186.457L621.681 186.457L621.681 211L617.913 211ZM619.835 182.359Q618.726 182.359 617.935 181.612Q617.144 180.865 617.144 179.81Q617.144 178.755 617.935 178.008Q618.726 177.25 619.835 177.25Q620.934 177.25 621.725 178.008Q622.516 178.755 622.516 179.81Q622.516 180.865 621.725 181.612Q620.934 182.359 619.835 182.359Z" fill-rule="nonzero" fill="rgb(224, 224, 224)"/>
		<path transform="matrix(1 0 0 1 217 631)" d="M638.563 211.516Q635.113 211.516 632.62 209.89Q630.126 208.253 628.774 205.397Q627.434 202.53 627.434 198.86Q627.434 195.114 628.818 192.246Q630.203 189.379 632.685 187.764Q635.168 186.138 638.497 186.138Q641.09 186.138 643.166 187.094Q645.243 188.05 646.561 189.774Q647.891 191.499 648.209 193.806L644.441 193.806Q644.012 192.125 642.529 190.829Q641.057 189.522 638.563 189.522Q636.355 189.522 634.696 190.664Q633.048 191.807 632.125 193.883Q631.213 195.949 631.213 198.728Q631.213 201.574 632.114 203.683Q633.015 205.792 634.663 206.957Q636.322 208.122 638.563 208.122Q640.035 208.122 641.233 207.616Q642.43 207.1 643.254 206.144Q644.089 205.188 644.441 203.837L648.209 203.837Q647.891 206.012 646.638 207.748Q645.386 209.484 643.331 210.506Q641.277 211.516 638.563 211.516Z" fill-rule="nonzero" fill="rgb(224, 224, 224)"/>
		<path transform="matrix(1 0 0 1 217 631)" d="M660.937 211.571Q658.597 211.571 656.696 210.692Q654.796 209.802 653.675 208.122Q652.555 206.43 652.555 204.035Q652.555 201.925 653.39 200.607Q654.224 199.289 655.609 198.542Q657.004 197.783 658.685 197.41Q660.377 197.036 662.08 196.806Q664.321 196.52 665.716 196.377Q667.122 196.223 667.76 195.861Q668.408 195.487 668.408 194.575L668.408 194.444Q668.408 192.082 667.122 190.774Q665.837 189.456 663.233 189.456Q660.531 189.456 658.993 190.642Q657.465 191.829 656.839 193.169L653.258 191.884Q654.224 189.654 655.828 188.401Q657.432 187.138 659.344 186.643Q661.256 186.138 663.101 186.138Q664.288 186.138 665.826 186.424Q667.375 186.698 668.814 187.566Q670.265 188.423 671.22 190.17Q672.187 191.906 672.187 194.828L672.187 211L668.408 211L668.408 207.671L668.221 207.671Q667.837 208.473 666.936 209.385Q666.046 210.297 664.563 210.934Q663.079 211.571 660.937 211.571ZM661.508 208.188Q663.75 208.188 665.288 207.309Q666.826 206.43 667.617 205.045Q668.408 203.65 668.408 202.112L668.408 198.662Q668.177 198.948 667.364 199.179Q666.562 199.409 665.507 199.585Q664.464 199.75 663.475 199.871Q662.497 199.992 661.893 200.069Q660.421 200.266 659.146 200.695Q657.883 201.112 657.103 201.947Q656.334 202.782 656.334 204.221Q656.334 206.188 657.795 207.188Q659.256 208.188 661.508 208.188Z" fill-rule="nonzero" fill="rgb(224, 224, 224)"/>
		<path transform="matrix(1 0 0 1 217 631)" d="M689.763 186.457L689.763 189.654L677.041 189.654L677.041 186.457L689.763 186.457ZM680.743 180.579L684.522 180.579L684.522 203.969Q684.522 205.562 684.995 206.353Q685.467 207.144 686.203 207.407Q686.95 207.671 687.774 207.671Q688.401 207.671 688.796 207.605Q689.203 207.528 689.444 207.484L690.213 210.868Q689.829 211.011 689.137 211.165Q688.455 211.319 687.401 211.319Q685.797 211.319 684.27 210.637Q682.743 209.945 681.743 208.539Q680.743 207.133 680.743 204.99L680.743 180.579Z" fill-rule="nonzero" fill="rgb(224, 224, 224)"/>
		<path transform="matrix(1 0 0 1 217 631)" d="M695.448 211L695.448 186.457L699.216 186.457L699.216 211L695.448 211ZM697.37 182.359Q696.261 182.359 695.47 181.612Q694.679 180.865 694.679 179.81Q694.679 178.755 695.47 178.008Q696.261 177.25 697.37 177.25Q698.469 177.25 699.26 178.008Q700.051 178.755 700.051 179.81Q700.051 180.865 699.26 181.612Q698.469 182.359 697.37 182.359Z" fill-rule="nonzero" fill="rgb(224, 224, 224)"/>
		<path transform="matrix(1 0 0 1 217 631)" d="M716.098 211.516Q712.769 211.516 710.264 209.934Q707.77 208.352 706.364 205.507Q704.969 202.661 704.969 198.86Q704.969 195.015 706.364 192.158Q707.77 189.302 710.264 187.72Q712.769 186.138 716.098 186.138Q719.416 186.138 721.921 187.72Q724.425 189.302 725.821 192.158Q727.216 195.015 727.216 198.86Q727.216 202.661 725.821 205.507Q724.425 208.352 721.921 209.934Q719.416 211.516 716.098 211.516ZM716.098 208.122Q718.625 208.122 720.251 206.836Q721.877 205.54 722.657 203.43Q723.448 201.321 723.448 198.86Q723.448 196.399 722.657 194.279Q721.877 192.147 720.251 190.84Q718.625 189.522 716.098 189.522Q713.571 189.522 711.934 190.84Q710.308 192.147 709.528 194.279Q708.748 196.399 708.748 198.86Q708.748 201.321 709.528 203.43Q710.308 205.54 711.934 206.836Q713.571 208.122 716.098 208.122Z" fill-rule="nonzero" fill="rgb(224, 224, 224)"/>
		<path transform="matrix(1 0 0 1 217 631)" d="M736.737 196.234L736.737 211L732.969 211L732.969 186.457L736.616 186.457L736.616 190.291L736.935 190.291Q737.792 188.423 739.55 187.281Q741.307 186.138 744.098 186.138Q746.581 186.138 748.449 187.149Q750.327 188.159 751.36 190.214Q752.404 192.268 752.404 195.399L752.404 211L748.635 211L748.635 195.663Q748.635 192.763 747.13 191.148Q745.625 189.522 743.01 189.522Q741.198 189.522 739.78 190.313Q738.374 191.093 737.55 192.598Q736.737 194.092 736.737 196.234Z" fill-rule="nonzero" fill="rgb(224, 224, 224)"/>
		<path transform="matrix(1 0 0 1 217 631)" d="M776.695 191.95L773.3 192.906Q772.982 192.06 772.367 191.258Q771.751 190.445 770.697 189.917Q769.642 189.39 767.994 189.39Q765.742 189.39 764.248 190.423Q762.754 191.455 762.754 193.037Q762.754 194.444 763.775 195.257Q764.808 196.07 766.972 196.619L770.62 197.509Q773.916 198.311 775.52 199.948Q777.135 201.585 777.135 204.156Q777.135 206.265 775.926 207.935Q774.729 209.594 772.564 210.561Q770.411 211.516 767.555 211.516Q763.797 211.516 761.336 209.89Q758.875 208.253 758.216 205.122L761.798 204.221Q762.314 206.21 763.742 207.199Q765.171 208.188 767.489 208.188Q770.125 208.188 771.685 207.067Q773.245 205.935 773.245 204.353Q773.245 203.079 772.345 202.211Q771.455 201.332 769.598 200.904L765.511 199.937Q762.138 199.146 760.556 197.465Q758.985 195.773 758.985 193.235Q758.985 191.148 760.161 189.555Q761.336 187.962 763.369 187.05Q765.412 186.138 767.994 186.138Q771.641 186.138 773.729 187.742Q775.816 189.335 776.695 191.95Z" fill-rule="nonzero" fill="rgb(224, 224, 224)"/>
		<path transform="matrix(1 0 0 1 217 631)" d="M785.573 211.253Q784.397 211.253 783.551 210.407Q782.705 209.561 782.705 208.374Q782.705 207.199 783.551 206.353Q784.397 205.507 785.573 205.507Q786.759 205.507 787.605 206.353Q788.451 207.199 788.451 208.374Q788.451 209.165 788.056 209.824Q787.671 210.473 787.023 210.868Q786.375 211.253 785.573 211.253Z" fill-rule="nonzero" fill="rgb(224, 224, 224)"/>
		<path transform="matrix(1 0 0 1 205 926)" d="M0 0L850 0L850 7.01L0 7.01L0 0Z" fill-rule="nonzero" fill="rgb(255, 255, 255)" fill-opacity="0.1"/>
		<path transform="matrix(1 0 0 1 936 1056)" d="M13.0276 45.4222Q9.93805 45.4222 7.5797 44.3203Q5.22135 43.2184 3.90314 41.2822Q2.58494 39.3358 2.59523 36.8539Q2.58494 34.9075 3.35732 33.2494Q4.14001 31.5914 5.48911 30.4791Q6.84851 29.3566 8.52716 29.058L8.52716 28.8829Q6.32328 28.3165 5.01538 26.4112Q3.71777 24.4957 3.73837 22.055Q3.71777 19.7172 4.91239 17.8738Q6.11731 16.0304 8.2182 14.9696Q10.3294 13.8986 13.0276 13.8986Q15.6846 13.8986 17.7855 14.9696Q19.8864 16.0304 21.0913 17.8738Q22.2962 19.7172 22.3065 22.055Q22.2962 24.4957 20.978 26.4112Q19.6701 28.3165 17.5177 28.8829L17.5177 29.058Q19.1758 29.3566 20.5043 30.4791Q21.8431 31.5914 22.6361 33.2494Q23.4291 34.9075 23.4497 36.8539Q23.4291 39.3358 22.1006 41.2822Q20.7824 43.2184 18.4343 44.3203Q16.0965 45.4222 13.0276 45.4222ZM13.0276 42.1267Q15.1079 42.1267 16.6218 41.4573Q18.1356 40.7776 18.9595 39.5521Q19.7834 38.3163 19.7937 36.6685Q19.7834 34.9384 18.8977 33.6099Q18.0121 32.2711 16.4879 31.509Q14.974 30.7366 13.0276 30.7366Q11.0606 30.7366 9.52611 31.509Q7.99164 32.2711 7.11627 33.6099Q6.2409 34.9384 6.2512 36.6685Q6.2409 38.3163 7.05448 39.5521Q7.86806 40.7776 9.39223 41.4573Q10.9267 42.1267 13.0276 42.1267ZM13.0276 27.5647Q14.6754 27.5647 15.9524 26.9056Q17.2294 26.2465 17.9606 25.0621Q18.7021 23.8778 18.7124 22.2919Q18.7021 20.7368 17.9812 19.5731Q17.2603 18.4093 15.9833 17.7811Q14.7165 17.1426 13.0276 17.1426Q11.2975 17.1426 10.0101 17.7811Q8.72283 18.4093 8.01224 19.5731Q7.31194 20.7368 7.33254 22.2919Q7.31194 23.8778 8.03283 25.0621Q8.76402 26.2465 10.0513 26.9056Q11.3489 27.5647 13.0276 27.5647Z" fill-rule="nonzero" fill="rgb(160, 160, 160)"/>
		<path transform="matrix(1 0 0 1 936 1056)" d="M40.0966 12.879L30.2101 49.6137L26.9763 49.6137L36.8629 12.879L40.0966 12.879Z" fill-rule="nonzero" fill="rgb(160, 160, 160)"/>
		<path transform="matrix(1 0 0 1 936 1056)" d="M55.019 14.3208L55.019 45L51.3013 45L51.3013 18.2137L51.1159 18.2137L43.6289 23.1878L43.6289 19.4186L51.3013 14.3208L55.019 14.3208Z" fill-rule="nonzero" fill="rgb(160, 160, 160)"/>
		<path transform="matrix(1 0 0 1 936 1056)" d="M73.8247 45.4222Q70.4365 45.4222 68.0575 43.5685Q65.6786 41.7148 64.4118 38.1927Q63.1554 34.6603 63.1554 29.6656Q63.1554 24.6914 64.4221 21.1693Q65.6889 17.6369 68.0781 15.7729Q70.4674 13.8986 73.8247 13.8986Q77.182 13.8986 79.5712 15.7729Q81.9605 17.6369 83.2272 21.1693Q84.4939 24.6914 84.4939 29.6656Q84.4939 34.6603 83.2272 38.1927Q81.9708 41.7148 79.5918 43.5685Q77.2129 45.4222 73.8247 45.4222ZM73.8247 42.1267Q77.182 42.1267 79.0357 38.893Q80.8997 35.649 80.8997 29.6656Q80.8997 25.6801 80.0449 22.8789Q79.2005 20.0777 77.6145 18.6153Q76.0388 17.1426 73.8247 17.1426Q70.4983 17.1426 68.6239 20.4175Q66.7496 23.6821 66.7496 29.6656Q66.7496 33.6408 67.5838 36.4317Q68.4283 39.2226 70.0039 40.6746Q71.5899 42.1267 73.8247 42.1267Z" fill-rule="nonzero" fill="rgb(160, 160, 160)"/>
		<path transform="matrix(1 0 0 1 205 968)" d="M4.22342 57L4.22342 22.148L15.9928 22.148Q20.0993 22.148 22.7082 23.6221Q25.3171 25.0962 26.5806 27.5999Q27.8441 30.0918 27.8441 33.1804Q27.8441 36.2573 26.5923 38.7726Q25.3405 41.2879 22.7316 42.7854Q20.1344 44.2713 16.063 44.2713L7.62789 44.2713L7.62789 40.5275L15.9226 40.5275Q18.7304 40.5275 20.4268 39.5565Q22.1349 38.5854 22.9071 36.9358Q23.6909 35.2746 23.6909 33.1804Q23.6909 31.0862 22.9071 29.4366Q22.1349 27.7871 20.4151 26.8394Q18.7071 25.8918 15.8641 25.8918L8.43514 25.8918L8.43514 57L4.22342 57Z" fill-rule="nonzero" fill="rgb(255, 255, 255)"/>
		<path transform="matrix(1 0 0 1 205 968)" d="M34.0912 57L34.0912 30.8639L37.9754 30.8639L37.9754 34.8066L38.2444 34.8066Q38.9581 32.8645 40.83 31.6595Q42.7018 30.4545 45.0534 30.4545Q45.498 30.4545 46.1531 30.4779Q46.82 30.4896 47.1592 30.5247L47.1592 34.6077Q46.9604 34.5492 46.235 34.4439Q45.5097 34.3386 44.7141 34.3386Q42.8071 34.3386 41.3096 35.1342Q39.8238 35.918 38.9581 37.3102Q38.104 38.6907 38.104 40.4573L38.104 57L34.0912 57Z" fill-rule="nonzero" fill="rgb(255, 255, 255)"/>
		<path transform="matrix(1 0 0 1 205 968)" d="M61.726 57.5499Q58.1811 57.5499 55.5137 55.8652Q52.858 54.1805 51.3605 51.1504Q49.8747 48.1203 49.8747 44.0724Q49.8747 39.9776 51.3605 36.9358Q52.858 33.894 55.5137 32.2094Q58.1811 30.5247 61.726 30.5247Q65.2592 30.5247 67.9266 32.2094Q70.594 33.894 72.0798 36.9358Q73.5656 39.9776 73.5656 44.0724Q73.5656 48.1203 72.0798 51.1504Q70.594 54.1805 67.9266 55.8652Q65.2592 57.5499 61.726 57.5499ZM61.726 53.9348Q64.4168 53.9348 66.1483 52.566Q67.8798 51.1855 68.7104 48.9392Q69.5528 46.693 69.5528 44.0724Q69.5528 41.4517 68.7104 39.1938Q67.8798 36.9241 66.1483 35.5319Q64.4168 34.128 61.726 34.128Q59.0352 34.128 57.292 35.5319Q55.5605 36.9241 54.7299 39.1938Q53.8992 41.4517 53.8992 44.0724Q53.8992 46.693 54.7299 48.9392Q55.5605 51.1855 57.292 52.566Q59.0352 53.9348 61.726 53.9348Z" fill-rule="nonzero" fill="rgb(255, 255, 255)"/>
		<path transform="matrix(1 0 0 1 205 968)" d="M91.3242 30.8639L91.3242 34.2684L77.2383 34.2684L77.2383 30.8639L91.3242 30.8639ZM81.4501 57L81.4501 27.2489Q81.4501 25.0026 82.503 23.5051Q83.5676 22.0076 85.2523 21.2589Q86.937 20.5101 88.8089 20.5101Q90.283 20.5101 91.2189 20.7558Q92.1548 20.9898 92.6228 21.2004L91.4646 24.6634Q91.1604 24.5698 90.6222 24.4177Q90.0841 24.2539 89.2183 24.2539Q87.2295 24.2539 86.352 25.26Q85.4746 26.2662 85.4746 28.2082L85.4746 57L81.4501 57Z" fill-rule="nonzero" fill="rgb(255, 255, 255)"/>
		<path transform="matrix(1 0 0 1 205 968)" d="M96.9678 57L96.9678 30.8639L100.981 30.8639L100.981 57L96.9678 57ZM99.0152 26.5001Q97.8335 26.5001 96.9912 25.7046Q96.1488 24.909 96.1488 23.7859Q96.1488 22.6628 96.9912 21.8672Q97.8335 21.06 99.0152 21.06Q100.185 21.06 101.027 21.8672Q101.87 22.6628 101.87 23.7859Q101.87 24.909 101.027 25.7046Q100.185 26.5001 99.0152 26.5001Z" fill-rule="nonzero" fill="rgb(255, 255, 255)"/>
		<path transform="matrix(1 0 0 1 205 968)" d="M118.955 57.5499Q115.281 57.5499 112.625 55.8184Q109.97 54.0752 108.531 51.0334Q107.103 47.9799 107.103 44.0724Q107.103 40.0829 108.578 37.0294Q110.052 33.9759 112.696 32.2562Q115.34 30.5247 118.885 30.5247Q121.646 30.5247 123.857 31.5425Q126.068 32.5603 127.472 34.3971Q128.887 36.2339 129.227 38.6907L125.214 38.6907Q124.758 36.9007 123.178 35.5202Q121.61 34.128 118.955 34.128Q116.603 34.128 114.837 35.3447Q113.082 36.5615 112.099 38.7726Q111.128 40.9721 111.128 43.932Q111.128 46.9621 112.087 49.2083Q113.047 51.4546 114.802 52.6947Q116.568 53.9348 118.955 53.9348Q120.522 53.9348 121.798 53.3966Q123.073 52.8468 123.95 51.8289Q124.839 50.8111 125.214 49.3721L129.227 49.3721Q128.887 51.6886 127.554 53.537Q126.22 55.3855 124.032 56.4735Q121.844 57.5499 118.955 57.5499Z" fill-rule="nonzero" fill="rgb(255, 255, 255)"/>
		<path transform="matrix(1 0 0 1 205 968)" d="M135.075 57L135.075 30.8639L139.088 30.8639L139.088 57L135.075 57ZM137.122 26.5001Q135.941 26.5001 135.098 25.7046Q134.256 24.909 134.256 23.7859Q134.256 22.6628 135.098 21.8672Q135.941 21.06 137.122 21.06Q138.292 21.06 139.135 21.8672Q139.977 22.6628 139.977 23.7859Q139.977 24.909 139.135 25.7046Q138.292 26.5001 137.122 26.5001Z" fill-rule="nonzero" fill="rgb(255, 255, 255)"/>
		<path transform="matrix(1 0 0 1 205 968)" d="M157.401 57.5499Q153.622 57.5499 150.885 55.8769Q148.159 54.1922 146.685 51.1738Q145.211 48.1554 145.211 44.1309Q145.211 40.118 146.685 37.0528Q148.159 33.9759 150.803 32.2562Q153.447 30.5247 156.992 30.5247Q159.039 30.5247 161.028 31.2032Q163.017 31.8818 164.643 33.4027Q166.281 34.9236 167.252 37.4272Q168.223 39.9308 168.223 43.5927L168.223 45.2891L148.077 45.2891L148.077 41.8261L164.14 41.8261Q164.14 39.6033 163.262 37.8718Q162.385 36.1403 160.771 35.1342Q159.168 34.128 156.992 34.128Q154.593 34.128 152.85 35.3096Q151.107 36.4913 150.171 38.3865Q149.235 40.2701 149.235 42.4345L149.235 44.7509Q149.235 47.7108 150.265 49.7582Q151.294 51.8055 153.131 52.8702Q154.968 53.9348 157.401 53.9348Q158.981 53.9348 160.268 53.4902Q161.554 53.034 162.49 52.1214Q163.426 51.2089 163.929 49.8518L167.814 50.9398Q167.205 52.917 165.754 54.4028Q164.304 55.8886 162.174 56.7192Q160.057 57.5499 157.401 57.5499Z" fill-rule="nonzero" fill="rgb(255, 255, 255)"/>
		<path transform="matrix(1 0 0 1 205 968)" d="M178.352 41.2763L178.352 57L174.339 57L174.339 30.8639L178.223 30.8639L178.223 34.947L178.562 34.947Q179.475 32.9581 181.347 31.7414Q183.219 30.5247 186.19 30.5247Q188.834 30.5247 190.823 31.601Q192.824 32.6773 193.923 34.8651Q195.035 37.0528 195.035 40.3871L195.035 57L191.022 57L191.022 40.6679Q191.022 37.5793 189.419 35.8595Q187.816 34.128 185.032 34.128Q183.102 34.128 181.592 34.9704Q180.095 35.801 179.217 37.4038Q178.352 38.9949 178.352 41.2763Z" fill-rule="nonzero" fill="rgb(255, 255, 255)"/>
		<path transform="matrix(1 0 0 1 205 968)" d="M212.998 57.5499Q209.324 57.5499 206.668 55.8184Q204.013 54.0752 202.574 51.0334Q201.146 47.9799 201.146 44.0724Q201.146 40.0829 202.621 37.0294Q204.095 33.9759 206.739 32.2562Q209.383 30.5247 212.928 30.5247Q215.689 30.5247 217.9 31.5425Q220.111 32.5603 221.515 34.3971Q222.93 36.2339 223.27 38.6907L219.257 38.6907Q218.801 36.9007 217.221 35.5202Q215.653 34.128 212.998 34.128Q210.646 34.128 208.88 35.3447Q207.125 36.5615 206.142 38.7726Q205.171 40.9721 205.171 43.932Q205.171 46.9621 206.13 49.2083Q207.09 51.4546 208.845 52.6947Q210.611 53.9348 212.998 53.9348Q214.565 53.9348 215.841 53.3966Q217.116 52.8468 217.993 51.8289Q218.882 50.8111 219.257 49.3721L223.27 49.3721Q222.93 51.6886 221.597 53.537Q220.263 55.3855 218.075 56.4735Q215.887 57.5499 212.998 57.5499Z" fill-rule="nonzero" fill="rgb(255, 255, 255)"/>
		<path transform="matrix(1 0 0 1 205 968)" d="M231.703 66.8039Q230.686 66.8039 229.878 66.6402Q229.083 66.4764 228.779 66.3243L229.796 62.7911Q231.259 63.1655 232.382 63.0602Q233.505 62.9549 234.383 62.0541Q235.26 61.1649 235.997 59.1761L236.746 57.1404L227.082 30.8639L231.434 30.8639L238.653 51.6886L238.922 51.6886L246.14 30.8639L250.492 30.8639L239.402 60.8139Q238.653 62.8379 237.541 64.1716Q236.442 65.5053 234.979 66.1488Q233.529 66.8039 231.703 66.8039Z" fill-rule="nonzero" fill="rgb(255, 255, 255)"/>
		<path transform="matrix(1 0 0 1 205 968)" d="M269.816 57L269.816 22.148L274.028 22.148L274.028 53.2562L290.232 53.2562L290.232 57L269.816 57Z" fill-rule="nonzero" fill="rgb(255, 255, 255)"/>
		<path transform="matrix(1 0 0 1 205 968)" d="M307.176 57.5499Q303.397 57.5499 300.659 55.8769Q297.934 54.1922 296.459 51.1738Q294.985 48.1554 294.985 44.1309Q294.985 40.118 296.459 37.0528Q297.934 33.9759 300.578 32.2562Q303.222 30.5247 306.766 30.5247Q308.814 30.5247 310.803 31.2032Q312.792 31.8818 314.418 33.4027Q316.056 34.9236 317.027 37.4272Q317.998 39.9308 317.998 43.5927L317.998 45.2891L297.852 45.2891L297.852 41.8261L313.915 41.8261Q313.915 39.6033 313.037 37.8718Q312.16 36.1403 310.545 35.1342Q308.943 34.128 306.766 34.128Q304.368 34.128 302.625 35.3096Q300.882 36.4913 299.946 38.3865Q299.01 40.2701 299.01 42.4345L299.01 44.7509Q299.01 47.7108 300.039 49.7582Q301.069 51.8055 302.906 52.8702Q304.742 53.9348 307.176 53.9348Q308.755 53.9348 310.042 53.4902Q311.329 53.034 312.265 52.1214Q313.201 51.2089 313.704 49.8518L317.588 50.9398Q316.98 52.917 315.529 54.4028Q314.078 55.8886 311.949 56.7192Q309.832 57.5499 307.176 57.5499Z" fill-rule="nonzero" fill="rgb(255, 255, 255)"/>
		<path transform="matrix(1 0 0 1 205 968)" d="M344.671 30.8639L335.008 57L330.925 57L321.261 30.8639L325.613 30.8639L332.832 51.6886L333.101 51.6886L340.319 30.8639L344.671 30.8639Z" fill-rule="nonzero" fill="rgb(255, 255, 255)"/>
		<path transform="matrix(1 0 0 1 205 968)" d="M359.981 57.5499Q356.202 57.5499 353.465 55.8769Q350.739 54.1922 349.265 51.1738Q347.79 48.1554 347.79 44.1309Q347.79 40.118 349.265 37.0528Q350.739 33.9759 353.383 32.2562Q356.027 30.5247 359.572 30.5247Q361.619 30.5247 363.608 31.2032Q365.597 31.8818 367.223 33.4027Q368.861 34.9236 369.832 37.4272Q370.803 39.9308 370.803 43.5927L370.803 45.2891L350.657 45.2891L350.657 41.8261L366.72 41.8261Q366.72 39.6033 365.842 37.8718Q364.965 36.1403 363.35 35.1342Q361.748 34.128 359.572 34.128Q357.173 34.128 355.43 35.3096Q353.687 36.4913 352.751 38.3865Q351.815 40.2701 351.815 42.4345L351.815 44.7509Q351.815 47.7108 352.844 49.7582Q353.874 51.8055 355.711 52.8702Q357.548 53.9348 359.981 53.9348Q361.56 53.9348 362.847 53.4902Q364.134 53.034 365.07 52.1214Q366.006 51.2089 366.509 49.8518L370.393 50.9398Q369.785 52.917 368.334 54.4028Q366.884 55.8886 364.754 56.7192Q362.637 57.5499 359.981 57.5499Z" fill-rule="nonzero" fill="rgb(255, 255, 255)"/>
		<path transform="matrix(1 0 0 1 205 968)" d="M380.932 22.148L380.932 57L376.919 57L376.919 22.148L380.932 22.148Z" fill-rule="nonzero" fill="rgb(255, 255, 255)"/>
		<path transform="matrix(1 0 0 1 205 1073)" d="M16 0C7.16344 0 0 7.16344 0 16L0 16.024C0 24.8606 7.13944 32 15.976 32L16 32C24.8366 32 32 24.8606 32 16.024L32 16C32 7.16344 24.8606 0 16.024 0L16 0Z" fill-rule="nonzero" fill="rgb(227, 79, 38)"/>
		<path transform="matrix(1 0 0 1 269 1073)" d="M16 0C7.16344 0 0 7.16344 0 16L0 16.024C0 24.8606 7.13944 32 15.976 32L16 32C24.8366 32 32 24.8606 32 16.024L32 16C32 7.16344 24.8606 0 16.024 0L16 0Z" fill-rule="nonzero" fill="rgb(227, 79, 38)"/>
		<path transform="matrix(1 0 0 1 333 1073)" d="M16 0C7.16344 0 0 7.16344 0 16L0 16.024C0 24.8606 7.13944 32 15.976 32L16 32C24.8366 32 32 24.8606 32 16.024L32 16C32 7.16344 24.8606 0 16.024 0L16 0Z" fill-rule="nonzero" fill="rgb(227, 79, 38)"/>
		<path transform="matrix(1 0 0 1 397 1073)" d="M16 0C7.16344 0 0 7.16344 0 16L0 16.024C0 24.8606 7.13944 32 15.976 32L16 32C24.8366 32 32 24.8606 32 16.024L32 16C32 7.16344 24.8606 0 16.024 0L16 0Z" fill-rule="nonzero" fill="rgb(227, 79, 38)"/>
		<path transform="matrix(1 0 0 1 461 1073)" d="M16 0C7.16344 0 0 7.16344 0 16L0 16.024C0 24.8606 7.13944 32 15.976 32L16 32C24.8366 32 32 24.8606 32 16.024L32 16C32 7.16344 24.8606 0 16.024 0L16 0Z" fill-rule="nonzero" fill="rgb(227, 79, 38)"/>
		<path transform="matrix(1 0 0 1 525 1073)" d="M16 0C7.16344 0 0 7.16344 0 16L0 16.024C0 24.8606 7.13944 32 15.976 32L16 32C24.8366 32 32 24.8606 32 16.024L32 16C32 7.16344 24.8606 0 16.024 0L16 0Z" fill-rule="nonzero" fill="rgb(227, 79, 38)"/>
		<path transform="matrix(1 0 0 1 589 1073)" d="M16 0C7.16344 0 0 7.16344 0 16L0 16.024C0 24.8606 7.13944 32 15.976 32L16 32C24.8366 32 32 24.8606 32 16.024L32 16C32 7.16344 24.8606 0 16.024 0L16 0Z" fill-rule="nonzero" fill="rgb(227, 79, 38)"/>
		<path transform="matrix(1 0 0 1 653 1073)" d="M16 0C7.16344 0 0 7.16344 0 16L0 16.024C0 24.8606 7.13944 32 15.976 32L16 32C24.8366 32 32 24.8606 32 16.024L32 16C32 7.16344 24.8606 0 16.024 0L16 0Z" fill-rule="nonzero" fill="rgb(227, 79, 38)"/>
		<path transform="matrix(1 0 0 1 717 1073)" d="M16 0C7.16344 0 0 7.16344 0 16L0 16.024C0 24.8606 7.13944 32 15.976 32L16 32C24.8366 32 32 24.8606 32 16.024L32 16C32 7.16344 24.8606 0 16.024 0L16 0Z" fill-rule="nonzero" fill="rgb(227, 79, 38)" fill-opacity="0.3"/>
		<path transform="matrix(1 0 0 1 781 1073)" d="M16 0C7.16344 0 0 7.16344 0 16L0 16.024C0 24.8606 7.13944 32 15.976 32L16 32C24.8366 32 32 24.8606 32 16.024L32 16C32 7.16344 24.8606 0 16.024 0L16 0Z" fill-rule="nonzero" fill="rgb(227, 79, 38)" fill-opacity="0.3"/>
		<path transform="matrix(1 0 0 1 179 1203)" d="M37 0C16.5655 0 0 16.5655 0 37L0 37.0555C0 57.49 16.5655 74 37 74L278 74C298.435 74 315 57.49 315 37.0555L315 37C315 16.5655 298.435 0 278 0L37 0Z" fill-rule="nonzero" fill="rgb(227, 79, 38)" fill-opacity="0.2"/>
		<path transform="matrix(1 0 0 1 212.936 1215.18)" d="M3.26931 38L3.26931 11.0214L6.52957 11.0214L6.52957 35.102L19.0725 35.102L19.0725 38L3.26931 38Z" fill-rule="nonzero" fill="rgb(227, 79, 38)"/>
		<path transform="matrix(1 0 0 1 212.936 1215.18)" d="M29.6678 38.4709Q27.7388 38.4709 26.172 37.7464Q24.6053 37.0129 23.6816 35.6273Q22.7578 34.2326 22.7578 32.2583Q22.7578 30.5195 23.4461 29.4328Q24.1344 28.346 25.2755 27.7302Q26.4256 27.1053 27.8112 26.7974Q29.2059 26.4895 30.6096 26.2993Q32.4571 26.0638 33.6072 25.9461Q34.7664 25.8193 35.2917 25.5205Q35.826 25.2125 35.826 24.4609L35.826 24.3522Q35.826 22.4051 34.7664 21.3274Q33.7069 20.2407 31.5605 20.2407Q29.3327 20.2407 28.0648 21.2187Q26.806 22.1968 26.2898 23.3017L23.3374 22.2421Q24.1344 20.4037 25.4566 19.3712Q26.7788 18.3298 28.3546 17.9222Q29.9304 17.5057 31.4518 17.5057Q32.4299 17.5057 33.6978 17.7411Q34.9747 17.9675 36.1611 18.683Q37.3565 19.3894 38.1444 20.8293Q38.9414 22.2602 38.9414 24.6692L38.9414 38L35.826 38L35.826 35.256L35.6721 35.256Q35.3551 35.9171 34.6125 36.6687Q33.8789 37.4204 32.6563 37.9457Q31.4337 38.4709 29.6678 38.4709ZM30.1387 35.6816Q31.9862 35.6816 33.254 34.9571Q34.5219 34.2326 35.174 33.0915Q35.826 31.9414 35.826 30.6735L35.826 27.8298Q35.6358 28.0653 34.9657 28.2555Q34.3046 28.4456 33.4352 28.5905Q32.5748 28.7264 31.7598 28.826Q30.9538 28.9256 30.4557 28.989Q29.2421 29.152 28.1916 29.5052Q27.1501 29.8494 26.5071 30.5376Q25.8732 31.2259 25.8732 32.4123Q25.8732 34.0334 27.0777 34.8575Q28.2822 35.6816 30.1387 35.6816Z" fill-rule="nonzero" fill="rgb(227, 79, 38)"/>
		<path transform="matrix(1 0 0 1 212.936 1215.18)" d="M53.4292 17.7683L53.4292 20.4037L42.942 20.4037L42.942 17.7683L53.4292 17.7683ZM45.994 12.9232L49.1093 12.9232L49.1093 32.204Q49.1093 33.5171 49.4988 34.1692Q49.8882 34.8212 50.495 35.0386Q51.1108 35.256 51.79 35.256Q52.3062 35.256 52.6322 35.2016Q52.9673 35.1382 53.1666 35.102L53.8005 37.8913Q53.4835 38.0091 52.913 38.1358Q52.3515 38.2626 51.4821 38.2626Q50.1599 38.2626 48.9011 37.7011Q47.6422 37.1306 46.8181 35.9714Q45.994 34.8122 45.994 33.0462L45.994 12.9232Z" fill-rule="nonzero" fill="rgb(227, 79, 38)"/>
		<path transform="matrix(1 0 0 1 212.936 1215.18)" d="M66.39 38.4256Q63.4648 38.4256 61.3456 37.1306Q59.2355 35.8265 58.0944 33.49Q56.9533 31.1535 56.9533 28.0381Q56.9533 24.9318 58.0944 22.5591Q59.2355 20.1773 61.2822 18.846Q63.329 17.5057 66.073 17.5057Q67.6579 17.5057 69.1974 18.0309Q70.737 18.5562 71.9958 19.7335Q73.2637 20.9108 74.0154 22.8489Q74.767 24.7869 74.767 27.6215L74.767 28.9347L59.1721 28.9347L59.1721 26.254L71.6064 26.254Q71.6064 24.5333 70.9272 23.193Q70.2479 21.8527 68.9982 21.0738Q67.7575 20.295 66.073 20.295Q64.2165 20.295 62.8671 21.2097Q61.5177 22.1244 60.7932 23.5915Q60.0687 25.0495 60.0687 26.7249L60.0687 28.5181Q60.0687 30.8093 60.8656 32.3942Q61.6626 33.979 63.0844 34.8031Q64.5063 35.6273 66.39 35.6273Q67.6126 35.6273 68.6088 35.2831Q69.6049 34.9299 70.3295 34.2235Q71.054 33.5171 71.4434 32.4666L74.4501 33.3089Q73.9791 34.8394 72.8562 35.9895Q71.7332 37.1397 70.0849 37.7826Q68.4457 38.4256 66.39 38.4256Z" fill-rule="nonzero" fill="rgb(227, 79, 38)"/>
		<path transform="matrix(1 0 0 1 212.936 1215.18)" d="M93.843 22.2964L91.0447 23.0843Q90.782 22.387 90.2749 21.7259Q89.7677 21.0557 88.8983 20.621Q88.0289 20.1863 86.6705 20.1863Q84.8139 20.1863 83.5823 21.0376Q82.3506 21.8889 82.3506 23.193Q82.3506 24.3522 83.1929 25.0224Q84.0442 25.6925 85.8282 26.1453L88.8349 26.8789Q91.5518 27.54 92.874 28.8894Q94.2053 30.2388 94.2053 32.3579Q94.2053 34.0967 93.2091 35.4733Q92.222 36.8408 90.4379 37.6377Q88.6629 38.4256 86.3082 38.4256Q83.211 38.4256 81.1824 37.0853Q79.1538 35.7359 78.6104 33.1549L81.5627 32.4123Q81.9884 34.0515 83.1657 34.8665Q84.343 35.6816 86.2539 35.6816Q88.4274 35.6816 89.7134 34.7579Q90.9994 33.8251 90.9994 32.521Q90.9994 31.4704 90.2568 30.755Q89.5232 30.0305 87.9927 29.6773L84.6238 28.8803Q81.8435 28.2283 80.5394 26.8427Q79.2443 25.448 79.2443 23.356Q79.2443 21.6353 80.2134 20.3222Q81.1824 19.009 82.8578 18.2573Q84.5423 17.5057 86.6705 17.5057Q89.6772 17.5057 91.3979 18.8279Q93.1185 20.141 93.843 22.2964Z" fill-rule="nonzero" fill="rgb(227, 79, 38)"/>
		<path transform="matrix(1 0 0 1 212.936 1215.18)" d="M107.699 17.7683L107.699 20.4037L97.2123 20.4037L97.2123 17.7683L107.699 17.7683ZM100.264 12.9232L103.38 12.9232L103.38 32.204Q103.38 33.5171 103.769 34.1692Q104.158 34.8212 104.765 35.0386Q105.381 35.256 106.06 35.256Q106.576 35.256 106.902 35.2016Q107.238 35.1382 107.437 35.102L108.071 37.8913Q107.754 38.0091 107.183 38.1358Q106.622 38.2626 105.752 38.2626Q104.43 38.2626 103.171 37.7011Q101.912 37.1306 101.088 35.9714Q100.264 34.8122 100.264 33.0462L100.264 12.9232Z" fill-rule="nonzero" fill="rgb(227, 79, 38)"/>
		<path transform="matrix(1 0 0 1 212.936 1215.18)" d="M124.348 11.0214L132.354 33.7345L132.671 33.7345L140.686 11.0214L144.109 11.0214L134.202 38L130.833 38L120.925 11.0214L124.348 11.0214Z" fill-rule="nonzero" fill="rgb(227, 79, 38)"/>
		<path transform="matrix(1 0 0 1 212.936 1215.18)" d="M154.487 38.4256Q151.562 38.4256 149.443 37.1306Q147.332 35.8265 146.191 33.49Q145.05 31.1535 145.05 28.0381Q145.05 24.9318 146.191 22.5591Q147.332 20.1773 149.379 18.846Q151.426 17.5057 154.17 17.5057Q155.755 17.5057 157.294 18.0309Q158.834 18.5562 160.093 19.7335Q161.361 20.9108 162.112 22.8489Q162.864 24.7869 162.864 27.6215L162.864 28.9347L147.269 28.9347L147.269 26.254L159.703 26.254Q159.703 24.5333 159.024 23.193Q158.345 21.8527 157.095 21.0738Q155.854 20.295 154.17 20.295Q152.313 20.295 150.964 21.2097Q149.615 22.1244 148.89 23.5915Q148.166 25.0495 148.166 26.7249L148.166 28.5181Q148.166 30.8093 148.963 32.3942Q149.759 33.979 151.181 34.8031Q152.603 35.6273 154.487 35.6273Q155.709 35.6273 156.706 35.2831Q157.702 34.9299 158.426 34.2235Q159.151 33.5171 159.54 32.4666L162.547 33.3089Q162.076 34.8394 160.953 35.9895Q159.83 37.1397 158.182 37.7826Q156.543 38.4256 154.487 38.4256Z" fill-rule="nonzero" fill="rgb(227, 79, 38)"/>
		<path transform="matrix(1 0 0 1 212.936 1215.18)" d="M167.604 38L167.604 17.7683L170.611 17.7683L170.611 20.8203L170.819 20.8203Q171.371 19.3169 172.82 18.3841Q174.269 17.4513 176.09 17.4513Q176.434 17.4513 176.941 17.4694Q177.457 17.4785 177.72 17.5057L177.72 20.6663Q177.566 20.621 177.004 20.5395Q176.443 20.458 175.827 20.458Q174.351 20.458 173.192 21.0738Q172.041 21.6806 171.371 22.7583Q170.71 23.8269 170.71 25.1944L170.71 38L167.604 38Z" fill-rule="nonzero" fill="rgb(227, 79, 38)"/>
		<path transform="matrix(1 0 0 1 212.936 1215.18)" d="M195.745 22.2964L192.946 23.0843Q192.684 22.387 192.176 21.7259Q191.669 21.0557 190.8 20.621Q189.93 20.1863 188.572 20.1863Q186.715 20.1863 185.484 21.0376Q184.252 21.8889 184.252 23.193Q184.252 24.3522 185.094 25.0224Q185.946 25.6925 187.73 26.1453L190.736 26.8789Q193.453 27.54 194.776 28.8894Q196.107 30.2388 196.107 32.3579Q196.107 34.0967 195.111 35.4733Q194.124 36.8408 192.339 37.6377Q190.564 38.4256 188.21 38.4256Q185.113 38.4256 183.084 37.0853Q181.055 35.7359 180.512 33.1549L183.464 32.4123Q183.89 34.0515 185.067 34.8665Q186.245 35.6816 188.155 35.6816Q190.329 35.6816 191.615 34.7579Q192.901 33.8251 192.901 32.521Q192.901 31.4704 192.158 30.755Q191.425 30.0305 189.894 29.6773L186.525 28.8803Q183.745 28.2283 182.441 26.8427Q181.146 25.448 181.146 23.356Q181.146 21.6353 182.115 20.3222Q183.084 19.009 184.759 18.2573Q186.444 17.5057 188.572 17.5057Q191.579 17.5057 193.299 18.8279Q195.02 20.141 195.745 22.2964Z" fill-rule="nonzero" fill="rgb(227, 79, 38)"/>
		<path transform="matrix(1 0 0 1 212.936 1215.18)" d="M200.798 38L200.798 17.7683L203.905 17.7683L203.905 38L200.798 38ZM202.383 14.3903Q201.468 14.3903 200.816 13.7745Q200.164 13.1586 200.164 12.2892Q200.164 11.4198 200.816 10.804Q201.468 10.1791 202.383 10.1791Q203.289 10.1791 203.941 10.804Q204.593 11.4198 204.593 12.2892Q204.593 13.1586 203.941 13.7745Q203.289 14.3903 202.383 14.3903Z" fill-rule="nonzero" fill="rgb(227, 79, 38)"/>
		<path transform="matrix(1 0 0 1 212.936 1215.18)" d="M217.82 38.4256Q215.076 38.4256 213.012 37.1215Q210.956 35.8174 209.797 33.4719Q208.646 31.1263 208.646 27.9928Q208.646 24.8231 209.797 22.4685Q210.956 20.1139 213.012 18.8098Q215.076 17.5057 217.82 17.5057Q220.555 17.5057 222.62 18.8098Q224.685 20.1139 225.835 22.4685Q226.985 24.8231 226.985 27.9928Q226.985 31.1263 225.835 33.4719Q224.685 35.8174 222.62 37.1215Q220.555 38.4256 217.82 38.4256ZM217.82 35.6273Q219.903 35.6273 221.244 34.5677Q222.584 33.499 223.227 31.7602Q223.879 30.0214 223.879 27.9928Q223.879 25.9642 223.227 24.2164Q222.584 22.4594 221.244 21.3817Q219.903 20.295 217.82 20.295Q215.738 20.295 214.388 21.3817Q213.048 22.4594 212.405 24.2164Q211.762 25.9642 211.762 27.9928Q211.762 30.0214 212.405 31.7602Q213.048 33.499 214.388 34.5677Q215.738 35.6273 217.82 35.6273Z" fill-rule="nonzero" fill="rgb(227, 79, 38)"/>
		<path transform="matrix(1 0 0 1 212.936 1215.18)" d="M234.833 25.8284L234.833 38L231.727 38L231.727 17.7683L234.734 17.7683L234.734 20.9289L234.996 20.9289Q235.703 19.3894 237.152 18.4475Q238.601 17.5057 240.901 17.5057Q242.948 17.5057 244.487 18.3388Q246.036 19.172 246.887 20.8655Q247.748 22.5591 247.748 25.1401L247.748 38L244.641 38L244.641 25.3574Q244.641 22.9666 243.401 21.6353Q242.16 20.295 240.004 20.295Q238.51 20.295 237.342 20.947Q236.183 21.59 235.503 22.8307Q234.833 24.0624 234.833 25.8284Z" fill-rule="nonzero" fill="rgb(227, 79, 38)"/>
		<path transform="matrix(1 0 0 1 517 1208.48)" d="M22.3159 22.7148L13.7064 46L10.0687 46L1.45924 22.7148L5.33663 22.7148L11.7677 41.2679L12.0074 41.2679L18.4385 22.7148L22.3159 22.7148Z" fill-rule="nonzero" fill="rgb(156, 163, 175)"/>
		<path transform="matrix(1 0 0 1 517 1208.48)" d="M36.6834 46.4273Q34.0151 46.4273 31.8783 45.3642Q29.7416 44.301 28.4491 42.4561Q27.1671 40.6008 27.042 38.2348L30.6797 38.2348Q30.8986 40.3403 32.5975 41.7161Q34.3069 43.092 36.6834 43.092Q38.6012 43.092 40.0917 42.1956Q41.5822 41.2992 42.4369 39.7357Q43.2916 38.1618 43.2916 36.171Q43.2916 34.1489 42.4057 32.5542Q41.5197 30.949 39.9771 30.0214Q38.4345 29.0937 36.4437 29.0833Q35.0157 29.0624 33.5148 29.5106Q32.0138 29.9588 31.0445 30.6572L27.5319 30.2298L29.4081 14.9496L45.543 14.9496L45.543 18.2849L32.5663 18.2849L31.4718 27.4469L31.649 27.4469Q32.6079 26.686 34.0463 26.1857Q35.4847 25.6854 37.0482 25.6854Q39.9041 25.6854 42.1347 27.0404Q44.3756 28.3954 45.6577 30.751Q46.9397 33.0962 46.9397 36.1189Q46.9397 39.0895 45.6056 41.4138Q44.2818 43.7382 41.9575 45.0828Q39.6435 46.4273 36.6834 46.4273Z" fill-rule="nonzero" fill="rgb(156, 163, 175)"/>
		<path transform="matrix(1 0 0 1 517 1208.48)" d="M54.4476 46.2397Q53.3323 46.2397 52.5297 45.4372Q51.7272 44.6346 51.7272 43.5089Q51.7272 42.3936 52.5297 41.591Q53.3323 40.7884 54.4476 40.7884Q55.5733 40.7884 56.3759 41.591Q57.1784 42.3936 57.1784 43.5089Q57.1784 44.2593 56.8032 44.8847Q56.4384 45.4997 55.8234 45.8749Q55.2085 46.2397 54.4476 46.2397Z" fill-rule="nonzero" fill="rgb(156, 163, 175)"/>
		<path transform="matrix(1 0 0 1 517 1208.48)" d="M72.5823 46.4273Q69.1531 46.4273 66.7453 44.5512Q64.3376 42.675 63.0555 39.1103Q61.7839 35.5352 61.7839 30.48Q61.7839 25.4456 63.066 21.8809Q64.348 18.3058 66.7662 16.4192Q69.1843 14.5222 72.5823 14.5222Q75.9802 14.5222 78.3984 16.4192Q80.8165 18.3058 82.0986 21.8809Q83.3806 25.4456 83.3806 30.48Q83.3806 35.5352 82.0986 39.1103Q80.8269 42.675 78.4192 44.5512Q76.0115 46.4273 72.5823 46.4273ZM72.5823 43.092Q75.9802 43.092 77.8564 39.8191Q79.7429 36.5358 79.7429 30.48Q79.7429 26.4462 78.8778 23.6112Q78.0231 20.7761 76.418 19.296Q74.8232 17.8055 72.5823 17.8055Q69.2156 17.8055 67.3186 21.12Q65.4216 24.4242 65.4216 30.48Q65.4216 34.5033 66.2659 37.328Q67.1206 40.1526 68.7153 41.6223Q70.3204 43.092 72.5823 43.092Z" fill-rule="nonzero" fill="rgb(156, 163, 175)"/>
	</g>
</svg>
